<?xml version="1.0" encoding="UTF-8"?>
<svg version="1.1" xmlns="http://www.w3.org/2000/svg" width="512" height="512">
<path d="M0 0 C1.53055992 -0.00543162 3.0611146 -0.01256008 4.59165955 -0.02124023 C8.71778061 -0.03935314 12.84349807 -0.03245635 16.96962547 -0.01972389 C21.30597322 -0.00953336 25.64228846 -0.01900627 29.9786377 -0.02526855 C37.25811916 -0.03252745 44.53743783 -0.02300362 51.81689453 -0.00390625 C60.20978802 0.01785915 68.60229271 0.01080653 76.99517679 -0.01121187 C84.22611755 -0.02941619 91.45694187 -0.0318997 98.68789816 -0.0214572 C102.99569659 -0.01524982 107.30331282 -0.01431012 111.61109924 -0.02760315 C115.66281217 -0.03923467 119.71402819 -0.03100423 123.76568794 -0.00802612 C125.24462119 -0.00277771 126.72359691 -0.00418577 128.20251274 -0.01307678 C140.22608565 -0.07864667 150.14864958 1.71911585 159.57226562 9.59179688 C165.79108814 15.76056851 168.70700175 23.09950768 168.8069458 31.80107117 C168.80603943 32.59600479 168.80513306 33.39093842 168.80419922 34.20996094 C168.81091644 35.06284195 168.81763367 35.91572296 168.82455444 36.79444885 C168.84349163 39.6032602 168.84745671 42.41183197 168.84960938 45.22070312 C168.85604111 47.18357438 168.86276975 49.14644469 168.86978149 51.10931396 C168.88174417 55.22149883 168.88546344 59.33359975 168.88427734 63.44580078 C168.88407441 68.69564435 168.91135499 73.94494506 168.94582176 79.19466019 C168.96814458 83.24921096 168.97211321 87.30363231 168.97105789 91.35823822 C168.97340657 93.29258847 168.98218848 95.22694269 168.99772263 97.16123199 C169.09296903 110.24812682 168.85918316 120.81663172 159.34960938 130.76757812 C150.16275385 139.52441062 139.93844858 140.86422001 127.59399414 140.67114258 C125.90026852 140.63045681 124.20689245 140.57559457 122.51367188 140.51757812 C129.32385668 155.91166145 137.2501031 163.53763067 152.53930664 170.50244141 C154.62975262 171.57726203 156.44163146 172.85410883 158.35742188 174.21289062 C163.0761749 177.23712741 167.47150052 177.18998696 172.95117188 177.14257812 C182.23898738 177.14257812 190.93392367 177.88382289 197.90034485 184.67778015 C204.13180972 191.78398754 204.11630137 200.15327496 204.08007812 209.16992188 C204.0862767 210.46523331 204.09247528 211.76054474 204.09886169 213.09510803 C204.10921105 215.82424857 204.10478485 218.55286594 204.09008789 221.28198242 C204.07291069 224.75309831 204.09640733 228.22255693 204.13157749 231.69348812 C204.15901249 235.0398923 204.14880495 238.38591097 204.14257812 241.73242188 C204.15583633 242.96500229 204.16909454 244.1975827 204.18275452 245.46751404 C204.09343534 253.81596792 202.7589438 260.91869369 196.92945862 267.23374939 C193.19236912 270.51757812 193.19236912 270.51757812 190.51367188 270.51757812 C190.38992188 271.05382812 190.26617187 271.59007812 190.13867188 272.14257812 C183.44688526 297.57136727 164.62339266 321.1318797 144.51367188 337.51757812 C143.78019531 338.13890625 143.04671875 338.76023437 142.29101562 339.40039062 C115.80628512 361.36333788 82.84975848 373.30421517 48.82568359 376.44238281 C43.61413013 376.95663158 39.85123997 377.35842448 35.51367188 380.51757812 C31.89646644 381.76630155 28.34835959 381.64622124 24.54997253 381.65129089 C23.84912279 381.65355645 23.14827304 381.65582201 22.42618543 381.65815622 C20.07797079 381.66448581 17.72981402 381.66366752 15.3815918 381.6628418 C13.69779892 381.66583396 12.01400674 381.66923662 10.33021545 381.67301941 C5.75574437 381.68185839 1.18129199 381.6841975 -3.39318681 381.6848352 C-7.21267923 381.68578475 -11.0321673 381.68946363 -14.85165805 381.69300729 C-23.86440513 381.70115168 -32.87714223 381.70359156 -41.88989258 381.70288086 C-51.1840862 381.70228025 -60.47822175 381.71282872 -69.77240068 381.72862452 C-77.7538438 381.74170545 -85.73526795 381.74706451 -93.71672171 381.74642545 C-98.48276192 381.7461706 -103.24875053 381.74901463 -108.01478004 381.7596035 C-112.49878564 381.7692936 -116.98269042 381.76935738 -121.4666996 381.76208687 C-123.11018522 381.76104212 -124.75367714 381.76339739 -126.39715195 381.76944733 C-128.64544517 381.77718599 -130.89339188 381.77251021 -133.14167786 381.76481628 C-134.39841718 381.76536105 -135.6551565 381.76590582 -136.94997883 381.76646709 C-142.10660467 381.40354274 -146.15888505 380.57349875 -150.23632812 377.33007812 C-155.41253591 370.85981839 -155.93085132 365.19640282 -155.91870117 357.17602539 C-155.93398865 355.6529351 -155.93398865 355.6529351 -155.94958496 354.09907532 C-155.97965073 350.76065507 -155.9889713 347.42252208 -155.99804688 344.08398438 C-156.01489827 341.76227367 -156.03304913 339.44057207 -156.05244446 337.11888123 C-156.09990024 331.02144209 -156.1297384 324.92403984 -156.15588379 318.82647705 C-156.18571146 312.59908768 -156.23223428 306.37182536 -156.27734375 300.14453125 C-156.36332669 287.9356134 -156.43069442 275.72666936 -156.48632812 263.51757812 C-157.61325073 262.92009766 -157.61325073 262.92009766 -158.76293945 262.31054688 C-159.75060303 261.78074219 -160.7382666 261.2509375 -161.75585938 260.70507812 C-162.73401611 260.18300781 -163.71217285 259.6609375 -164.7199707 259.12304688 C-176.10483246 252.51578794 -182.12491585 239.22706859 -185.69726562 227.04101562 C-190.43740079 205.87466947 -190.40408655 183.43924863 -184.48632812 162.51757812 C-184.25558594 161.68919434 -184.02484375 160.86081055 -183.78710938 160.00732422 C-180.79126075 149.57138855 -176.86060155 139.64831173 -172.23632812 129.83007812 C-171.83148193 128.96535889 -171.42663574 128.10063965 -171.00952148 127.2097168 C-168.88014047 122.84567566 -166.82844527 118.84971501 -163.70874023 115.11376953 C-152.22388138 100.54952467 -154.1386401 83.37939559 -154.50061035 65.7913208 C-154.62794422 59.12660189 -154.66286493 52.46098689 -154.68969536 45.79523468 C-154.70861554 43.48449867 -154.75697366 41.17583942 -154.80982971 38.86566162 C-154.82649338 37.44853528 -154.8424756 36.03140071 -154.85766602 34.61425781 C-154.88196182 33.38503601 -154.90625763 32.15581421 -154.93128967 30.88934326 C-154.22276445 25.52038354 -151.8138144 22.68360444 -147.81678772 19.17272949 C-143.4505748 17.00283579 -140.00707643 16.97157903 -135.19897461 17.03515625 C-134.28263748 17.03124374 -133.36630035 17.02733124 -132.42219543 17.02330017 C-130.4382998 17.01733689 -128.4543603 17.02047399 -126.47048759 17.03172302 C-123.31987161 17.04903445 -120.17016944 17.04144764 -117.01954651 17.02746582 C-109.19004455 16.99786033 -101.3607181 17.01095292 -93.53118896 17.02264404 C-86.91916529 17.03088712 -80.30754116 17.02273617 -73.69557381 16.99351501 C-70.6107887 16.98647837 -67.52672918 17.00303105 -64.44200134 17.02062988 C-46.26574801 17.18194281 -46.26574801 17.18194281 -30.86132812 8.51757812 C-30.2709375 7.85757813 -29.68054688 7.19757813 -29.07226562 6.51757812 C-20.52815425 -0.09055635 -10.31815124 -0.06203114 0 0 Z " fill="#03524E" transform="translate(255.486328125,64.482421875)"/>
<path d="M0 0 C1.02738281 -0.06960937 2.05476563 -0.13921875 3.11328125 -0.2109375 C10.94325073 -0.30701075 15.10194302 1.99653373 21.16796875 6.48828125 C31.22229024 13.75790394 40.78453221 13.47525043 52.8125 13.1875 C54.80662937 13.18052128 56.80078271 13.17853932 58.79492188 13.18164062 C63.6154976 13.17849529 68.43069124 13.10846084 73.25 13 C73.25364563 13.75453461 73.25729126 14.50906921 73.26104736 15.28646851 C73.29908761 22.43568219 73.35611946 29.58438394 73.43390274 36.73326683 C73.47322752 40.40764392 73.50548858 44.08178674 73.52099609 47.75634766 C73.53626285 51.30985736 73.57088162 54.86272238 73.61830902 58.41594315 C73.6401264 60.41524658 73.64246509 62.41473246 73.64434814 64.41415405 C73.83051455 76.12618888 76.50858302 84.31040049 84.71484375 92.796875 C91.34771022 98.56103015 97.48033399 100.1433248 106.125 100.1875 C112.63264717 100.42582685 112.63264717 100.42582685 115.31640625 102.921875 C118.88233884 109.46449775 119.47451619 116.42197923 117.5625 123.5703125 C117.02848994 125.24936338 116.48068308 126.92409998 115.91796875 128.59375 C114.92776321 132.1608062 115.0455348 135.31962645 115.25 139 C121.65194345 139.46186366 127.01233165 138.97743795 133.14453125 136.984375 C134.2941333 136.61538086 135.44373535 136.24638672 136.62817383 135.86621094 C137.49337646 135.58036133 138.3585791 135.29451172 139.25 135 C139.36625534 147.55299372 139.45489831 160.10585769 139.50906086 172.65928173 C139.53506662 178.489439 139.57029926 184.3192258 139.62719727 190.14916992 C139.68183938 195.78373631 139.71148825 201.41794811 139.72438622 207.05275917 C139.73356852 209.1939991 139.75149841 211.33522136 139.77865028 213.47630882 C139.9229874 225.33843256 139.8990152 235.28247472 134.25 246 C133.77335403 246.91770676 133.29670807 247.83541351 132.80561829 248.78092957 C124.21768629 264.61056633 110.48261191 274.32325647 94.25 281 C92.95255859 281.54527344 92.95255859 281.54527344 91.62890625 282.1015625 C78.12513928 286.97476002 63.18591842 284.11716794 50.5 278.33984375 C24.08848454 265.54697747 9.44410442 241.51491411 -0.75 215 C-1.08435059 214.13721436 -1.41870117 213.27442871 -1.76318359 212.38549805 C-4.24799922 205.79054523 -6.13780391 199.16981706 -7.75 192.3125 C-8.00491211 191.230896 -8.25982422 190.14929199 -8.52246094 189.03491211 C-15.33839531 159.4354493 -17.06812147 130.03439508 -17.12109375 99.73046875 C-17.12527227 98.39014411 -17.12972693 97.0498203 -17.1344471 95.70949745 C-17.15864441 88.72697524 -17.17194003 81.74452486 -17.17553711 74.76196289 C-17.17921038 68.28569377 -17.2094477 61.80988725 -17.25094169 55.33376044 C-17.28560957 49.72384648 -17.30108446 44.1140876 -17.30178314 38.50406724 C-17.30257331 35.17350274 -17.31360061 31.84352831 -17.33978081 28.51305199 C-17.36654399 24.82362516 -17.36191992 21.13551819 -17.34936523 17.44604492 C-17.36419952 16.35472763 -17.37903381 15.26341034 -17.39431763 14.13902283 C-17.32261373 6.76391288 -17.32261373 6.76391288 -14.37458801 2.83100891 C-9.81931931 -0.3469137 -5.40410898 0.03892515 0 0 Z " fill="#FDFEFE" transform="translate(139.75,103)"/>
<path d="M0 0 C23.76 0 47.52 0 72 0 C74.64 4.95 77.28 9.9 80 15 C86.55401269 23.09010941 93.76642014 26.76694066 103.02563477 30.98486328 C105.11608075 32.0596839 106.92795958 33.33653071 108.84375 34.6953125 C113.56250303 37.71954929 117.95782865 37.67240884 123.4375 37.625 C132.72531551 37.625 141.4202518 38.36624477 148.38667297 45.16020203 C154.61813784 52.26640942 154.6026295 60.63569683 154.56640625 69.65234375 C154.57260483 70.94765518 154.57880341 72.24296661 154.58518982 73.57752991 C154.59553918 76.30667044 154.59111298 79.03528781 154.57641602 81.7644043 C154.55923881 85.23552018 154.58273545 88.70497881 154.61790562 92.17591 C154.64534062 95.52231418 154.63513308 98.86833284 154.62890625 102.21484375 C154.64216446 103.44742416 154.65542267 104.68000458 154.66908264 105.94993591 C154.57976347 114.29838979 153.24527192 121.40111557 147.41578674 127.71617126 C143.67869724 131 143.67869724 131 141 131 C140.814375 131.804375 140.814375 131.804375 140.625 132.625 C133.93321338 158.05378914 115.10972079 181.61430158 95 198 C94.26652344 198.62132812 93.53304687 199.24265625 92.77734375 199.8828125 C65.52658569 222.48100211 26.7597218 238.51452939 -9 237 C-8.5126686 236.19589345 -8.0253372 235.3917869 -7.52323818 234.56331348 C-5.64125277 230.16078205 -5.5851694 226.71362214 -5.62818909 221.98698425 C-5.62436452 221.08982628 -5.62053996 220.1926683 -5.6165995 219.26832372 C-5.60732722 216.26750914 -5.61929809 213.26715749 -5.63110352 210.26635742 C-5.62863515 208.112613 -5.62479638 205.95886978 -5.61968994 203.80513 C-5.61135358 199.16924731 -5.61215826 194.53348745 -5.61987495 189.89760399 C-5.63145863 182.56451612 -5.61929436 175.23158625 -5.60325623 167.89851379 C-5.56706223 149.68298291 -5.56083135 131.46745566 -5.56335449 113.25189209 C-5.56506595 99.09788121 -5.557935 84.94399935 -5.52337593 70.79002458 C-5.50658855 63.50332409 -5.50837141 56.21693828 -5.52419865 48.93023908 C-5.53000078 44.39227636 -5.51924589 39.85446242 -5.50395203 35.31652641 C-5.50022974 33.21591513 -5.50332241 31.11527874 -5.51382256 29.0146904 C-5.52722846 26.14074102 -5.51595363 23.26787323 -5.49879456 20.39396667 C-5.51350472 19.15541617 -5.51350472 19.15541617 -5.52851206 17.89184445 C-5.45411735 11.84130594 -3.78056436 7.33860931 -1 2 C-0.67 1.34 -0.34 0.68 0 0 Z " fill="#37DEA3" transform="translate(305,204)"/>
<path d="M0 0 C1.11027054 -0.00860046 2.22054108 -0.01720093 3.36445618 -0.02606201 C5.20029015 -0.03245193 5.20029015 -0.03245193 7.07321167 -0.03897095 C8.35787827 -0.04714844 9.64254486 -0.05532593 10.96614075 -0.06375122 C15.23471984 -0.08998174 19.50330877 -0.10528406 23.77194214 -0.11953735 C25.24215577 -0.12489741 26.71236935 -0.13027492 28.18258286 -0.13566971 C34.30072492 -0.15730369 40.41886434 -0.17603819 46.53703499 -0.1872921 C55.29884882 -0.20351522 64.06021803 -0.23664662 72.82186425 -0.29369295 C78.98503593 -0.33244826 85.148089 -0.35193161 91.31137931 -0.35721266 C94.99057564 -0.36085975 98.66929787 -0.37281056 102.34836197 -0.4053154 C106.45873481 -0.44110855 110.56815832 -0.43701108 114.67868042 -0.42959595 C115.89042435 -0.44600128 117.10216827 -0.46240662 118.35063171 -0.47930908 C126.92358573 -0.41604203 131.59544579 1.52382501 137.97116089 7.07577515 C138.50096558 7.6790564 139.03077026 8.28233765 139.57662964 8.90390015 C140.39067261 9.79335327 140.39067261 9.79335327 141.22116089 10.70077515 C147.01808134 19.91714488 146.20407191 30.16014128 146.16256714 40.6187439 C146.16459155 42.42038592 146.16750604 44.22202714 146.17126465 46.02366638 C146.17567184 49.78843026 146.16930965 53.55297968 146.15524292 57.31771851 C146.13816437 62.12014594 146.14799401 66.92206978 146.16596031 71.72447872 C146.17685223 75.441907 146.17332691 79.15921785 146.16557693 82.87664986 C146.1635892 84.64630761 146.16598349 86.41597636 146.17301559 88.18562126 C146.24862661 112.55987395 146.24862661 112.55987395 137.16256714 121.77890015 C131.67283845 126.80913612 126.65701667 128.39685047 119.16378784 128.42514038 C117.87257523 128.435327 116.58136261 128.44551361 115.25102234 128.45600891 C114.5688093 128.4569499 113.88659626 128.45789089 113.1837101 128.4588604 C111.03570661 128.46254398 108.88815661 128.47932059 106.74024963 128.49961853 C100.63753672 128.55486528 94.53476043 128.58579506 88.43185425 128.61019897 C84.69005651 128.62605888 80.94858802 128.65624905 77.20696068 128.69496346 C75.78323034 128.7066152 74.35944124 128.71254382 72.93566322 128.71264458 C70.94915863 128.71283628 68.96268489 128.73259366 66.97628784 128.75326538 C65.84632889 128.75833603 64.71636993 128.76340668 63.5521698 128.76863098 C60.76504754 128.92429935 60.76504754 128.92429935 58.94935608 130.5141449 C57.29345865 132.80507126 56.43731273 135.19597578 55.45162964 137.84140015 C53.21631821 143.36980432 50.70136961 147.69541801 46.76412964 152.15390015 C46.1672937 152.84354858 45.57045776 153.53319702 44.95553589 154.2437439 C40.18338187 159.3999747 35.2109796 162.44054404 28.76412964 165.15390015 C27.92881714 165.52515015 27.09350464 165.89640015 26.23287964 166.27890015 C23.76921417 167.15209804 22.04283168 167.3667375 19.45162964 167.27890015 C18.23475464 167.23765015 17.01787964 167.19640015 15.76412964 167.15390015 C16.20440466 164.07197496 16.72481574 161.26422287 17.77194214 158.32577515 C20.28252268 150.29982475 19.56326281 142.9134699 15.88912964 135.40390015 C14.00624849 131.58854778 14.00624849 131.58854778 10.76412964 129.15390015 C8.43166911 129.04893942 6.09802108 128.96977611 3.76412964 128.90390015 C-5.23069144 128.43246671 -11.77530279 126.03822801 -18.11087036 119.52890015 C-26.06176819 109.12797979 -25.8334787 97.94454905 -25.76712036 85.45858765 C-25.76982068 83.65740754 -25.77370757 81.85622887 -25.77871704 80.05505371 C-25.78458372 76.29798368 -25.77613917 72.54129645 -25.75735474 68.78427124 C-25.73453372 63.98839392 -25.74772604 59.19341067 -25.77164459 54.39756584 C-25.78615141 50.68444167 -25.78147485 46.97152689 -25.77113342 43.25839615 C-25.76848132 41.49070248 -25.77168201 39.72298928 -25.78105164 37.95531845 C-25.83279907 25.45524268 -24.87671851 16.36420354 -16.11087036 6.88046265 C-13.36301797 4.35014857 -10.58679847 2.79651196 -7.23587036 1.15390015 C-4.67968161 -0.12419423 -2.86305728 0.01647179 0 0 Z " fill="#FCFDFD" transform="translate(243.23587036132813,70.84609985351563)"/>
<path d="M0 0 C1.77066928 -0.02752898 3.54133981 -0.05497728 5.31201172 -0.08233643 C6.10937241 -0.10691736 6.90673309 -0.1314983 7.72825623 -0.15682411 C15.80263047 -0.25066719 23.10535065 1.69120583 29.06739807 7.34989929 C35.13669551 14.53409117 35.16068303 22.76306622 35.12451172 31.76678467 C35.1307103 33.0620961 35.13690887 34.35740753 35.14329529 35.69197083 C35.15364465 38.42111136 35.14921845 41.14972873 35.13452148 43.87884521 C35.11734428 47.3499611 35.14084092 50.81941973 35.17601109 54.29035091 C35.20344608 57.63675509 35.19323855 60.98277376 35.18701172 64.32928467 C35.20026993 65.56186508 35.21352814 66.7944455 35.22718811 68.06437683 C35.13818936 76.38288145 33.7926558 83.4004036 28.08009338 89.7598114 C22.51474353 94.71319316 17.13836575 95.37291444 9.98388672 95.67303467 C9.18337891 95.81869873 8.38287109 95.96436279 7.55810547 96.11444092 C5.16069901 99.71055061 5.31822855 101.41536419 5.37060547 105.67694092 C5.37705078 106.83322998 5.38349609 107.98951904 5.39013672 109.18084717 C5.3603937 112.04847894 5.3603937 112.04847894 6.55810547 114.11444092 C6.74560547 117.11444092 6.74560547 117.11444092 6.55810547 120.11444092 C4.55810547 122.11444092 4.55810547 122.11444092 1.18310547 122.61444092 C-7.10132615 122.41791243 -15.77321295 116.91809111 -21.44189453 111.11444092 C-25.34922097 106.14483897 -27.50327952 102.41087095 -28.44189453 96.11444092 C-29.18390106 96.12332336 -29.92590759 96.13220581 -30.69039917 96.14135742 C-37.72154598 96.22187931 -44.75253007 96.2825947 -51.78400993 96.32168961 C-55.39803798 96.34246534 -59.01168148 96.37059605 -62.62548828 96.41619873 C-66.12036991 96.46001905 -69.6148843 96.4836531 -73.11001968 96.49394989 C-75.07630794 96.50481573 -77.04245077 96.53598272 -79.0085144 96.56762695 C-87.55057636 96.56974145 -94.97007577 95.64099718 -101.84423828 90.21990967 C-102.35083984 89.58697998 -102.85744141 88.95405029 -103.37939453 88.30194092 C-103.90404297 87.67674561 -104.42869141 87.05155029 -104.96923828 86.40740967 C-109.72360077 79.00472854 -109.90919152 72.76020686 -109.91064453 64.09490967 C-109.91825806 62.84116043 -109.92587158 61.58741119 -109.93371582 60.29566956 C-109.94449951 57.64859159 -109.94875289 55.00240906 -109.94287109 52.35540771 C-109.93815637 49.65801468 -109.95202511 46.9617948 -109.98388672 44.2645874 C-110.02689982 40.35350126 -110.03576991 36.44370741 -110.03564453 32.53240967 C-110.05203979 31.3373027 -110.06843506 30.14219574 -110.08532715 28.91087341 C-110.0165495 20.50083315 -108.55177271 13.43922291 -102.59851074 7.17466736 C-97.05501935 2.14353463 -92.72130345 0.81642682 -85.22705078 0.79559326 C-83.98689209 0.78052483 -83.98689209 0.78052483 -82.72167969 0.76515198 C-79.98259143 0.73422914 -77.2436026 0.71723453 -74.50439453 0.70037842 C-72.58503409 0.68164095 -70.66568167 0.66206567 -68.74633789 0.64169312 C-63.67745858 0.59027161 -58.60855162 0.55075732 -53.53955078 0.5135498 C-48.45484232 0.4739758 -43.37025759 0.42239926 -38.28564453 0.37225342 C-19.06880959 0.18885993 -19.06880959 0.18885993 -10.58300781 0.15124512 C-7.05408179 0.13367898 -3.52809628 0.07757988 0 0 Z " fill="#14A886" transform="translate(424.44189453125,241.88555908203125)"/>
<path d="M0 0 C0.33 0 0.66 0 1 0 C1.02916504 0.60956543 1.05833008 1.21913086 1.08837891 1.84716797 C2.40115214 26.97541043 5.56329937 53.16960232 14 77 C14.25362305 77.74668945 14.50724609 78.49337891 14.76855469 79.26269531 C24.17872083 106.9085717 37.90941086 132.40754324 64.40234375 146.85546875 C78.81783733 153.79753165 93.19505118 156.78188802 108.6875 151.9375 C127.65561489 144.78460794 142.32202082 133.64776646 151.15625 115.02734375 C152.65603074 111.42370393 153.85998391 107.73096176 155 104 C155.33 104 155.66 104 156 104 C156.09269711 114.60504334 156.16376361 125.20999023 156.20724869 135.81535625 C156.22811985 140.73992413 156.25642896 145.66421474 156.30175781 150.58862305 C156.34523227 155.34133948 156.36914066 160.09378929 156.37950897 164.84668922 C156.38689746 166.65959686 156.40132554 168.47248997 156.42292023 170.28528404 C156.45197587 172.82551941 156.45595516 175.36465438 156.45410156 177.9050293 C156.46848267 178.65381348 156.48286377 179.40259766 156.49768066 180.17407227 C156.47064012 183.60086631 156.15351309 185.74957647 154.34948349 188.69246197 C151.37726878 191.61161356 150.04095375 191.6277545 145.92724609 191.63491821 C144.05972687 191.65606689 144.05972687 191.65606689 142.15447998 191.67764282 C140.77746218 191.66792159 139.40044798 191.65768077 138.0234375 191.64697266 C136.57121687 191.65374889 135.11900483 191.66265206 133.66680908 191.67352295 C129.72454015 191.69632294 125.78292524 191.68747755 121.84064484 191.67162752 C117.71584811 191.65897194 113.59110751 191.67070767 109.46630859 191.67855835 C102.5392857 191.68765595 95.61252931 191.67566426 88.68554688 191.65185547 C80.67600078 191.62464377 72.66709102 191.63345787 64.65756035 191.6609875 C57.78183481 191.68367457 50.90630088 191.68688069 44.03055 191.67379415 C39.92347914 191.66599734 35.81670743 191.6649641 31.70965576 191.68147659 C27.84835766 191.69591651 23.98788023 191.68590968 20.12667084 191.65700531 C18.70931105 191.65039175 17.29188223 191.65229697 15.87454987 191.66331863 C13.9406429 191.67697129 12.00658507 191.65681784 10.07275391 191.63491821 C8.99023346 191.63303308 7.90771301 191.63114796 6.79238892 191.6292057 C4 191 4 191 1.65051651 188.9392271 C-0.38030157 185.3227619 -0.54735015 182.37470397 -0.48101807 178.33744812 C-0.48443577 177.57363526 -0.48785347 176.80982239 -0.49137473 176.02286369 C-0.49795497 173.4675768 -0.47597607 170.91334413 -0.45410156 168.3581543 C-0.45297311 166.52492803 -0.4536069 164.69169995 -0.45587158 162.85847473 C-0.45701975 157.88356454 -0.43349369 152.90903972 -0.40557575 147.93421912 C-0.38057931 142.73455236 -0.37822148 137.53487687 -0.37347412 132.3351593 C-0.36103919 122.48960165 -0.32821051 112.64422156 -0.28807616 102.79874212 C-0.24337461 91.58967465 -0.22137546 80.38059873 -0.20129442 69.17146432 C-0.1594784 46.11421109 -0.08911621 23.05711549 0 0 Z " fill="#11A787" transform="translate(123,232)"/>
<path d="M0 0 C5.95953517 4.42300829 11.15328909 9.9988986 16.375 15.25 C17.44041016 16.30960938 17.44041016 16.30960938 18.52734375 17.390625 C19.20667969 18.07125 19.88601562 18.751875 20.5859375 19.453125 C21.1948584 20.06317383 21.8037793 20.67322266 22.43115234 21.30175781 C24.95698999 24.03592007 25.96506575 25.62271015 26.3125 29.375 C25.70720826 36.39638419 21.04099741 40.48132281 16 45 C15.01 45.495 15.01 45.495 14 46 C13.69530514 49.55305188 13.68138429 51.48136004 15.57421875 54.5625 C16.27160156 55.366875 16.96898437 56.17125 17.6875 57 C18.79158203 58.29357422 18.79158203 58.29357422 19.91796875 59.61328125 C20.94857422 60.79470703 20.94857422 60.79470703 22 62 C22.8356277 63.06069648 23.66940684 64.12285654 24.5 65.1875 C27.09772683 68.10994268 29.83445909 70.60137658 32.81640625 73.12109375 C34.3592331 74.44864243 35.86414564 75.82086622 37.33984375 77.22265625 C38.50193359 78.31900391 38.50193359 78.31900391 39.6875 79.4375 C40.39261719 80.11683594 41.09773438 80.79617188 41.82421875 81.49609375 C43.91056301 83.1493031 43.91056301 83.1493031 46.44921875 83.49609375 C49.9929681 82.80688063 51.55202213 81.11929353 54.125 78.625 C60.82852564 72.20673077 60.82852564 72.20673077 65.1875 71.4375 C69.19216396 72.02835206 69.88095895 72.43264568 72.71484375 75.0234375 C73.4116626 75.65854248 74.10848145 76.29364746 74.82641602 76.94799805 C78.39171555 80.31386827 81.90634848 83.72210237 85.375 87.1875 C86.08527344 87.88552734 86.79554688 88.58355469 87.52734375 89.30273438 C88.54634766 90.31883789 88.54634766 90.31883789 89.5859375 91.35546875 C90.1948584 91.96028076 90.8037793 92.56509277 91.43115234 93.18823242 C93.98953002 96.14274857 94.96808339 98.20208466 95.125 102.125 C93.82803082 109.44813083 86.7850306 115.85642747 81 120 C72.02967603 124.56512435 60.80371109 122.3123546 51.63671875 119.38671875 C20.69494131 107.58829663 -4.52176883 83.34796525 -18.5625 53.41015625 C-23.6771367 41.27679257 -27.01951968 26.98368847 -23.08203125 13.96484375 C-18.89639989 5.85094996 -9.5812219 -1.95535141 0 0 Z " fill="#13A986" transform="translate(168,186)"/>
<path d="M0 0 C1.09445938 0.00212242 1.09445938 0.00212242 2.21102905 0.00428772 C4.54437335 0.00989094 6.87762214 0.0224439 9.2109375 0.03515625 C10.79166528 0.04017084 12.37239457 0.04473382 13.953125 0.04882812 C17.83076604 0.05986141 21.70833557 0.07712814 25.5859375 0.09765625 C24.32657878 1.55029297 23.06722005 3.00292969 21.80786133 4.45556641 C20.05794864 6.80719732 19.32211107 9.2868117 18.5859375 12.09765625 C17.70550781 12.1234375 16.82507813 12.14921875 15.91796875 12.17578125 C14.17580078 12.26085937 14.17580078 12.26085937 12.3984375 12.34765625 C10.67560547 12.41726562 10.67560547 12.41726562 8.91796875 12.48828125 C4.99757571 13.20525817 3.34641071 14.2538295 0.5859375 17.09765625 C-1.16619331 20.69293045 -1.66586239 23.57387913 -1.67412472 27.55313778 C-1.68119031 28.64272885 -1.6882559 29.73231993 -1.6955356 30.85492891 C-1.69312052 32.04635691 -1.69070543 33.2377849 -1.68821716 34.46531677 C-1.69345384 35.73534029 -1.69869052 37.0053638 -1.70408589 38.31387287 C-1.71826039 41.83690315 -1.71992929 45.35984518 -1.71948898 48.88289988 C-1.72113762 52.68325348 -1.73420483 56.48357076 -1.74568176 60.28390503 C-1.76852489 68.59159758 -1.77645125 76.89926458 -1.78150821 85.20698428 C-1.78476526 90.39366521 -1.79128768 95.58033872 -1.7985096 100.76701546 C-1.81807265 115.12651932 -1.83447924 129.48601628 -1.83738613 143.84553432 C-1.8375737 144.76427645 -1.83776127 145.68301857 -1.83795452 146.62960136 C-1.83832078 148.49210934 -1.83868447 150.35461731 -1.83904564 152.21712529 C-1.83922845 153.14167756 -1.83941126 154.06622982 -1.83959961 155.01879883 C-1.83978016 155.94447865 -1.83996071 156.87015848 -1.84014673 157.8238892 C-1.84369029 172.83162345 -1.87072532 187.83921438 -1.9080975 202.84689891 C-1.94615678 218.25368294 -1.96554342 233.6603958 -1.96584564 249.0672279 C-1.96643066 257.71828035 -1.97495146 266.36916173 -2.00384331 275.02017021 C-2.02832512 282.3845211 -2.03566167 289.74863849 -2.02059578 297.11301904 C-2.01341429 300.87083747 -2.01433697 304.6281945 -2.03700638 308.38596153 C-2.06134056 312.45865286 -2.04699609 316.5302891 -2.02879333 320.60301208 C-2.0419933 321.79220936 -2.05519327 322.98140663 -2.06879324 324.20664018 C-2.08703542 330.98501652 -2.08703542 330.98501652 1.00228786 336.79507542 C5.13498564 340.4781873 7.83096272 341.32944377 13.3359375 341.72265625 C14.32078125 341.79742187 15.305625 341.8721875 16.3203125 341.94921875 C17.06796875 341.99820312 17.815625 342.0471875 18.5859375 342.09765625 C18.77929688 342.64035156 18.97265625 343.18304688 19.171875 343.7421875 C19.43226563 344.45761719 19.69265625 345.17304688 19.9609375 345.91015625 C20.21617187 346.61785156 20.47140625 347.32554687 20.734375 348.0546875 C21.6125144 350.34538984 21.6125144 350.34538984 23.5859375 353.09765625 C19.12029449 353.22162772 14.65557311 353.31216617 10.1887207 353.37231445 C8.67063949 353.39739734 7.15267832 353.43147285 5.63500977 353.47485352 C3.44777785 353.53578918 1.26214711 353.5639252 -0.92578125 353.5859375 C-2.24022217 353.61212158 -3.55466309 353.63830566 -4.90893555 353.6652832 C-9.27385025 352.95842058 -10.67859894 351.48613641 -13.4140625 348.09765625 C-14.72860085 345.46857954 -14.54438379 343.51987596 -14.55107689 340.57403183 C-14.55615143 339.39287883 -14.56122597 338.21172582 -14.56645429 336.9947803 C-14.56695205 335.68566723 -14.56744981 334.37655416 -14.56796265 333.027771 C-14.57197589 331.63201247 -14.57641388 330.23625511 -14.5812422 328.84049916 C-14.59322893 324.99146886 -14.598861 321.1424511 -14.60342336 317.29340577 C-14.60937149 313.1474031 -14.62098327 309.0014155 -14.63171387 304.85542297 C-14.65625559 294.83612504 -14.6708674 284.81682211 -14.68377393 274.79750335 C-14.68748451 271.96884083 -14.69145785 269.14017879 -14.6955266 266.31151676 C-14.7207612 248.75566025 -14.74281997 231.19980299 -14.75525475 213.64393234 C-14.75818457 209.57593533 -14.76114621 205.50793835 -14.76416016 201.43994141 C-14.76490621 200.42882786 -14.76565226 199.41771432 -14.76642092 198.37596098 C-14.77907885 181.99067718 -14.81230676 165.60550179 -14.85396199 149.2202687 C-14.89635378 132.40785117 -14.91994657 115.59548919 -14.92517531 98.78301835 C-14.92859251 89.33937956 -14.94038401 79.89591019 -14.97327805 70.45232391 C-15.00124187 62.41085581 -15.01229406 54.36959185 -15.00108258 46.3280789 C-14.99588652 42.2239685 -14.99884364 38.12028585 -15.02354813 34.01623726 C-15.0459741 30.25940316 -15.04535348 26.5033057 -15.02634425 22.74645928 C-15.02220329 20.74277281 -15.04273902 18.73908236 -15.06413114 16.73550582 C-14.97790192 7.01644294 -14.97790192 7.01644294 -12.00106239 3.31154251 C-7.94915978 -0.15596886 -5.13414313 -0.0372429 0 0 Z " fill="#F9FBFA" transform="translate(120.4140625,86.90234375)"/>
<path d="M0 0 C0.33 0 0.66 0 1 0 C1.09340681 27.0161731 1.16396136 54.03232203 1.20724869 81.04862404 C1.22788122 93.5925295 1.25601517 106.13633468 1.30175781 118.68017578 C1.34160424 129.61232265 1.36742778 140.54439689 1.37635398 151.47661436 C1.3815724 157.26612358 1.39385224 163.05542502 1.42292023 168.84486771 C1.45005448 174.29327382 1.45844893 179.74138641 1.45243073 185.18985367 C1.45353184 187.19014582 1.46149743 189.19044771 1.4768219 191.19068146 C1.49671855 193.9214782 1.49194033 196.65116622 1.48101807 199.38198853 C1.49266943 200.17382872 1.5043208 200.96566892 1.51632524 201.78150427 C1.4605085 206.94318279 0.47667296 209.94944358 -3 214 C-6.18378382 216.30032865 -9.0590818 216.25513368 -12.92089844 216.26742554 C-14.73793274 216.28022049 -14.73793274 216.28022049 -16.5916748 216.29327393 C-17.93090833 216.29257494 -19.27014176 216.29165189 -20.609375 216.29052734 C-22.02217972 216.29651276 -23.43498117 216.30331833 -24.84777832 216.31088257 C-28.68241598 216.32854535 -32.51696439 216.33323797 -36.35163879 216.33451414 C-39.55257485 216.33641381 -42.75349013 216.34377184 -45.95441818 216.35085833 C-53.50477909 216.3671398 -61.0550923 216.37202738 -68.60546875 216.37060547 C-76.39678682 216.36940305 -84.18782833 216.3905253 -91.97907639 216.4220928 C-98.6679248 216.44822897 -105.35668271 216.45897394 -112.04558182 216.45769465 C-116.04086279 216.45718437 -120.03589779 216.4629042 -124.03112793 216.48405075 C-127.78721859 216.50338944 -131.54282746 216.5035881 -135.29893494 216.48901749 C-136.67761436 216.48692303 -138.05632361 216.49166819 -139.43495178 216.5037384 C-141.3162745 216.5191437 -143.19776088 216.50750512 -145.07910156 216.49447632 C-146.13212463 216.49556585 -147.18514771 216.49665539 -148.27008057 216.49777794 C-151.72640175 215.86754673 -152.89298598 214.76878011 -155 212 C-155.75 208.25 -155.75 208.25 -156 205 C-154.96328266 204.99641747 -154.96328266 204.99641747 -153.90562153 204.99276257 C-137.08818004 204.93362538 -120.27090039 204.85808362 -103.45361805 204.76428509 C-95.32089852 204.71932034 -87.18822285 204.67990727 -79.05541992 204.65356445 C-71.96682752 204.63058983 -64.87837383 204.59719789 -57.78989142 204.55129844 C-54.03660663 204.52735886 -50.28345927 204.50863496 -46.53009987 204.50238609 C-42.33993574 204.49521482 -38.15024997 204.46478648 -33.96020508 204.43237305 C-32.71583176 204.43380814 -31.47145844 204.43524323 -30.18937683 204.4367218 C-29.04659271 204.42418365 -27.90380859 204.41164551 -26.72639465 204.39872742 C-25.7354672 204.39411845 -24.74453974 204.38950949 -23.72358418 204.38476086 C-20.54410773 203.93559608 -18.66724916 202.73543473 -16 201 C-15.34 201 -14.68 201 -14 201 C-12.18195419 196.35532902 -11.7231037 192.23383636 -11.77536011 187.30226135 C-11.77513829 186.16879419 -11.77513829 186.16879419 -11.774912 185.0124287 C-11.77663399 182.4906767 -11.79247061 179.96921088 -11.80810547 177.44750977 C-11.81190547 175.63534723 -11.81471333 173.82318238 -11.81660461 172.01101685 C-11.82204292 168.11342381 -11.83302473 164.21589908 -11.84786606 160.31833076 C-11.86981379 154.15359306 -11.87024956 147.98897212 -11.86599731 141.82420349 C-11.86480401 139.71217061 -11.86363501 137.60013772 -11.8624897 135.48810482 C-11.86190945 134.43059485 -11.8613292 133.37308489 -11.86073136 132.28352916 C-11.85470762 117.93525623 -11.8671314 103.58719168 -11.92089844 89.23901367 C-11.95701692 79.55444731 -11.96479124 69.87030275 -11.94040024 60.18569416 C-11.92871025 55.06276666 -11.93181171 49.94078349 -11.96990585 44.81796455 C-12.00562059 40.00026138 -12.00428529 35.18399152 -11.97467613 30.36626053 C-11.97045606 28.60019816 -11.97988777 26.83404142 -12.00410271 25.06814003 C-12.17610306 11.71421691 -12.17610306 11.71421691 -9.25976944 7.46354485 C-7.256346 5.69648256 -5.28543592 4.36811371 -3 3 C-1.98991214 2.01019067 -0.98704057 1.01279362 0 0 Z " fill="#0EA184" transform="translate(295,224)"/>
<path d="M0 0 C19.75870128 -0.09359645 39.51735734 -0.16405408 59.27623463 -0.20724869 C68.4514032 -0.22784112 77.62643373 -0.255898 86.80151367 -0.30175781 C94.8020049 -0.34172749 102.80239611 -0.36745692 110.80298442 -0.37635398 C115.03611336 -0.38155164 119.26895625 -0.39369816 123.50199318 -0.42292023 C127.49356593 -0.45024983 131.48473722 -0.45840995 135.47639465 -0.45243073 C136.93438594 -0.45352318 138.3923919 -0.4613722 139.85030174 -0.4768219 C150.98473554 -0.58893915 161.18657288 0.44708375 169.5703125 8.4296875 C175.64453245 15.10137171 177.29874055 21.58378716 177.30639648 30.41699219 C177.31472 31.24061249 177.32304352 32.06423279 177.33161926 32.91281128 C177.35563018 35.62421458 177.36448104 38.3353768 177.37109375 41.046875 C177.38006781 42.94248523 177.38918979 44.83809477 177.39845276 46.73370361 C177.4149218 50.704648 177.4226389 54.67550829 177.42553711 58.64648438 C177.43091452 63.71484327 177.4685771 68.78240279 177.51428127 73.85053635 C177.54414395 77.7661217 177.55126269 81.68151682 177.55226326 85.59720612 C177.55644833 87.46458848 177.56881324 89.33197231 177.58978081 91.19924164 C177.70842663 102.68017448 177.5186895 111.45752535 169.7890625 120.62109375 C169.07492187 121.22050781 168.36078125 121.81992188 167.625 122.4375 C166.56152344 123.36369141 166.56152344 123.36369141 165.4765625 124.30859375 C157.52723159 129.73771092 150.48080967 129.36855564 141.0625 129.1875 C139.69728034 129.17242992 138.33204465 129.15874561 136.96679688 129.14648438 C133.64411904 129.11126164 130.32226819 129.06200041 127 129 C130 127 130 127 133.375 125.25 C139.9283037 121.48945442 142.90093809 116.00632828 145 109 C145.17327316 108.46154449 145.34654633 107.92308899 145.52507019 107.36831665 C146.20425751 103.98143588 146.16444459 100.61753911 146.17700195 97.17724609 C146.18685875 96.00077515 146.18685875 96.00077515 146.19691467 94.80053711 C146.2166025 92.2081695 146.22830216 89.6158598 146.23828125 87.0234375 C146.24235678 86.13491718 146.2464323 85.24639687 146.25063133 84.33095169 C146.27147601 79.62509648 146.28578287 74.91927026 146.29516602 70.21337891 C146.30620796 65.37153824 146.34058676 60.53015998 146.38033772 55.68848228 C146.40658529 51.94962761 146.41486521 48.21088159 146.41844749 44.4719429 C146.42329492 42.68829868 146.43485585 40.90465871 146.45348549 39.12110519 C146.62001956 22.63871453 146.62001956 22.63871453 138.625 8.5625 C138.08101562 7.94503906 137.53703125 7.32757813 136.9765625 6.69140625 C130.64394757 1.27238992 124.4288545 1.5579943 116.47705078 1.56762695 C115.21796402 1.5574353 113.95887726 1.54724365 112.66163635 1.53674316 C109.22199552 1.50923431 105.78252001 1.49989707 102.34278345 1.49388909 C98.74325707 1.48448939 95.14385339 1.45828476 91.54440308 1.43388367 C84.73413679 1.39025873 77.92389437 1.36168724 71.11353099 1.33856028 C63.35772501 1.31148707 55.60204273 1.26757691 47.84632516 1.22227156 C31.89761374 1.12948271 15.94887902 1.0577757 0 1 C0 0.67 0 0.34 0 0 Z " fill="#22B487" transform="translate(242,70)"/>
<path d="M0 0 C0.33 0 0.66 0 1 0 C1 53.79 1 107.58 1 163 C-11.26690988 158.91103004 -18.67259621 151.76493028 -24.6875 140.4375 C-36.32655746 116.84819749 -36.04332766 86.90101319 -29 62 C-28.76925781 61.17161621 -28.53851563 60.34323242 -28.30078125 59.48974609 C-22.21987442 38.30711629 -12.33905092 18.23538707 0 0 Z " fill="#5CF6AB" transform="translate(100,165)"/>
<path d="M0 0 C1.77066928 -0.02752898 3.54133981 -0.05497728 5.31201172 -0.08233643 C6.10937241 -0.10691736 6.90673309 -0.1314983 7.72825623 -0.15682411 C15.80263047 -0.25066719 23.10535065 1.69120583 29.06739807 7.34989929 C35.13669551 14.53409117 35.16068303 22.76306622 35.12451172 31.76678467 C35.1307103 33.0620961 35.13690887 34.35740753 35.14329529 35.69197083 C35.15364465 38.42111136 35.14921845 41.14972873 35.13452148 43.87884521 C35.11734428 47.3499611 35.14084092 50.81941973 35.17601109 54.29035091 C35.20344608 57.63675509 35.19323855 60.98277376 35.18701172 64.32928467 C35.20026993 65.56186508 35.21352814 66.7944455 35.22718811 68.06437683 C35.13818936 76.38288145 33.7926558 83.4004036 28.08009338 89.7598114 C22.51474353 94.71319316 17.13836575 95.37291444 9.98388672 95.67303467 C9.18337891 95.81869873 8.38287109 95.96436279 7.55810547 96.11444092 C5.16069901 99.71055061 5.31822855 101.41536419 5.37060547 105.67694092 C5.37705078 106.83322998 5.38349609 107.98951904 5.39013672 109.18084717 C5.3603937 112.04847894 5.3603937 112.04847894 6.55810547 114.11444092 C6.74560547 117.11444092 6.74560547 117.11444092 6.55810547 120.11444092 C4.55810547 122.11444092 4.55810547 122.11444092 1.18310547 122.61444092 C-7.10132615 122.41791243 -15.77321295 116.91809111 -21.44189453 111.11444092 C-25.34922097 106.14483897 -27.50327952 102.41087095 -28.44189453 96.11444092 C-29.18390106 96.12332336 -29.92590759 96.13220581 -30.69039917 96.14135742 C-37.72154598 96.22187931 -44.75253007 96.2825947 -51.78400993 96.32168961 C-55.39803798 96.34246534 -59.01168148 96.37059605 -62.62548828 96.41619873 C-66.12036991 96.46001905 -69.6148843 96.4836531 -73.11001968 96.49394989 C-75.07630794 96.50481573 -77.04245077 96.53598272 -79.0085144 96.56762695 C-87.55057636 96.56974145 -94.97007577 95.64099718 -101.84423828 90.21990967 C-102.35083984 89.58697998 -102.85744141 88.95405029 -103.37939453 88.30194092 C-103.90404297 87.67674561 -104.42869141 87.05155029 -104.96923828 86.40740967 C-109.72360077 79.00472854 -109.90919152 72.76020686 -109.91064453 64.09490967 C-109.91825806 62.84116043 -109.92587158 61.58741119 -109.93371582 60.29566956 C-109.94449951 57.64859159 -109.94875289 55.00240906 -109.94287109 52.35540771 C-109.93815637 49.65801468 -109.95202511 46.9617948 -109.98388672 44.2645874 C-110.02689982 40.35350126 -110.03576991 36.44370741 -110.03564453 32.53240967 C-110.05203979 31.3373027 -110.06843506 30.14219574 -110.08532715 28.91087341 C-110.0165495 20.50083315 -108.55177271 13.43922291 -102.59851074 7.17466736 C-97.05501935 2.14353463 -92.72130345 0.81642682 -85.22705078 0.79559326 C-83.98689209 0.78052483 -83.98689209 0.78052483 -82.72167969 0.76515198 C-79.98259143 0.73422914 -77.2436026 0.71723453 -74.50439453 0.70037842 C-72.58503409 0.68164095 -70.66568167 0.66206567 -68.74633789 0.64169312 C-63.67745858 0.59027161 -58.60855162 0.55075732 -53.53955078 0.5135498 C-48.45484232 0.4739758 -43.37025759 0.42239926 -38.28564453 0.37225342 C-19.06880959 0.18885993 -19.06880959 0.18885993 -10.58300781 0.15124512 C-7.05408179 0.13367898 -3.52809628 0.07757988 0 0 Z M-100.37939453 12.05194092 C-103.43582913 16.59028321 -104.68800159 20.11786529 -104.73242188 25.58807373 C-104.74518158 26.65978821 -104.75794128 27.73150269 -104.77108765 28.83569336 C-104.77331329 29.9847113 -104.77553894 31.13372925 -104.77783203 32.31756592 C-104.78448883 33.50992859 -104.79114563 34.70229126 -104.79800415 35.93078613 C-104.80812208 38.45243794 -104.81282144 40.97411648 -104.8125 43.49578857 C-104.81686288 47.33657487 -104.85316578 51.17620235 -104.89111328 55.01678467 C-104.89698376 57.47120784 -104.90095161 59.92563645 -104.90283203 62.38006592 C-104.91720306 63.52098694 -104.9315741 64.66190796 -104.94638062 65.83740234 C-104.90439163 73.23667262 -104.08794784 79.92223535 -99.0652771 85.69726562 C-94.06999021 90.2134632 -88.77043704 91.38006833 -82.20874023 91.27801514 C-80.39204582 91.25842239 -80.39204582 91.25842239 -78.53865051 91.23843384 C-77.24472885 91.21556305 -75.95080719 91.19269226 -74.61767578 91.16912842 C-73.26581728 91.15522418 -71.91394274 91.14280672 -70.5620575 91.13180542 C-64.84127429 91.08308036 -59.12093029 91.01148452 -53.40063477 90.92254639 C-49.89245119 90.86901221 -46.38451301 90.83491421 -42.87599754 90.81280899 C-40.89323549 90.79436616 -38.9107218 90.75360537 -36.92829895 90.71255493 C-35.12578926 90.70241867 -35.12578926 90.70241867 -33.28686523 90.69207764 C-31.69851616 90.66970535 -31.69851616 90.66970535 -30.07807922 90.6468811 C-27.44189453 91.11444092 -27.44189453 91.11444092 -25.64787292 92.99508667 C-24.35885731 95.26036831 -23.25598149 97.5477324 -22.19189453 99.92694092 C-18.2902182 107.83511473 -12.75683624 113.05723003 -4.44189453 116.11444092 C-1.12606002 116.89281862 -1.12606002 116.89281862 1.55810547 117.11444092 C1.39955078 116.60655029 1.24099609 116.09865967 1.07763672 115.57537842 C0.38111866 112.27608236 0.30951987 109.11008454 0.24560547 105.73944092 C0.18953125 103.80971436 0.18953125 103.80971436 0.13232422 101.84100342 C0.65295215 97.2843149 2.31157328 94.36097311 5.55810547 91.11444092 C7.28449471 90.95562487 9.01470477 90.83754865 10.74560547 90.73944092 C17.09731204 90.1889049 20.77252867 88.94059901 25.30810547 84.30194092 C30.16800892 77.4170777 29.89180126 70.71110471 29.92919922 62.55975342 C29.93822769 61.34423798 29.94725616 60.12872253 29.95655823 58.87637329 C29.97104216 56.30943254 29.97994283 53.74245502 29.98364258 51.17547607 C29.99554309 47.25996442 30.04475515 43.34602677 30.09521484 39.43084717 C30.1046792 36.93215691 30.11191417 34.43345702 30.11669922 31.93475342 C30.1459977 30.18752487 30.1459977 30.18752487 30.17588806 28.40499878 C30.13681183 21.32498206 29.23034679 16.56673839 24.55810547 11.11444092 C18.39747893 5.11177916 11.81651778 4.81585747 3.65649414 4.82391357 C2.67521042 4.81719635 1.6939267 4.81047913 0.6829071 4.80355835 C-2.55275574 4.78460087 -5.78821089 4.78065522 -9.02392578 4.77850342 C-11.28065577 4.7720738 -13.53738492 4.76534532 -15.79411316 4.7583313 C-20.52251111 4.74636406 -25.25083603 4.7426499 -29.97924805 4.74383545 C-36.02507244 4.74403857 -42.07042643 4.71674041 -48.11613941 4.68229103 C-52.77713656 4.66000525 -57.43802082 4.65599844 -62.09906578 4.6570549 C-64.32730416 4.65470133 -66.55554576 4.64589164 -68.78373146 4.63039017 C-71.90685169 4.61069737 -75.02896157 4.61658171 -78.15209961 4.62860107 C-79.06409119 4.61736206 -79.97608276 4.60612305 -80.91571045 4.59454346 C-88.29733615 4.66638599 -95.32472778 6.31917323 -100.37939453 12.05194092 Z " fill="#025651" transform="translate(424.44189453125,241.88555908203125)"/>
<path d="M0 0 C0.98291016 0.00322266 1.96582031 0.00644531 2.97851562 0.00976562 C4.51475586 0.02233398 4.51475586 0.02233398 6.08203125 0.03515625 C7.63567383 0.04192383 7.63567383 0.04192383 9.22070312 0.04882812 C11.77870391 0.06061615 14.33658858 0.0770711 16.89453125 0.09765625 C16.1159375 0.69449219 15.33734375 1.29132813 14.53515625 1.90625 C10.76053264 5.03874089 8.44360787 8.45042639 6.89453125 13.09765625 C6.78637658 14.94137666 6.73571736 16.78869768 6.7175293 18.63549805 C6.70469406 19.77065353 6.69185883 20.90580902 6.67863464 22.07536316 C6.67124771 23.30346207 6.66386078 24.53156097 6.65625 25.796875 C6.64817825 27.06102737 6.64010651 28.32517975 6.63179016 29.62763977 C6.6179477 32.30672876 6.60693244 34.98569466 6.59936523 37.66479492 C6.58833142 41.07991237 6.55396318 44.49437274 6.51419353 47.90925884 C6.48159464 51.18423173 6.47723659 54.45926462 6.46875 57.734375 C6.45124191 58.95235275 6.43373383 60.17033051 6.41569519 61.42521667 C6.43357019 68.45722964 7.00250015 73.1659651 10.89453125 79.09765625 C12.82056453 80.70767412 14.69802261 81.84963998 16.89453125 83.09765625 C16.89453125 83.42765625 16.89453125 83.75765625 16.89453125 84.09765625 C13.18646529 84.2144033 9.47887585 84.28508899 5.76953125 84.34765625 C4.7228125 84.38117188 3.67609375 84.4146875 2.59765625 84.44921875 C-3.66687189 84.52851657 -7.35732972 84.31994275 -12.10546875 80.09765625 C-18.66060458 73.17834621 -18.42386937 65.79939961 -18.44140625 56.76171875 C-18.44806305 55.56839935 -18.45471985 54.37507996 -18.46157837 53.14559937 C-18.47168643 50.62572772 -18.47639596 48.1058294 -18.47607422 45.5859375 C-18.48044557 41.74303838 -18.51678235 37.90128974 -18.5546875 34.05859375 C-18.56055645 31.60547266 -18.56452532 29.15234614 -18.56640625 26.69921875 C-18.58077728 25.5562735 -18.59514832 24.41332825 -18.60995483 23.23574829 C-18.56853986 15.95884676 -17.81257711 9.97795476 -12.62265015 4.54556274 C-8.49269784 0.92352683 -5.36417207 -0.03100677 0 0 Z " fill="#FAFBFB" transform="translate(338.10546875,247.90234375)"/>
<path d="M0 0 C5.95953517 4.42300829 11.15328909 9.9988986 16.375 15.25 C17.44041016 16.30960938 17.44041016 16.30960938 18.52734375 17.390625 C19.20667969 18.07125 19.88601562 18.751875 20.5859375 19.453125 C21.1948584 20.06317383 21.8037793 20.67322266 22.43115234 21.30175781 C24.95698999 24.03592007 25.96506575 25.62271015 26.3125 29.375 C25.70720826 36.39638419 21.04099741 40.48132281 16 45 C15.01 45.495 15.01 45.495 14 46 C13.69530514 49.55305188 13.68138429 51.48136004 15.57421875 54.5625 C16.27160156 55.366875 16.96898437 56.17125 17.6875 57 C18.79158203 58.29357422 18.79158203 58.29357422 19.91796875 59.61328125 C20.94857422 60.79470703 20.94857422 60.79470703 22 62 C22.8356277 63.06069648 23.66940684 64.12285654 24.5 65.1875 C27.09772683 68.10994268 29.83445909 70.60137658 32.81640625 73.12109375 C34.3592331 74.44864243 35.86414564 75.82086622 37.33984375 77.22265625 C38.50193359 78.31900391 38.50193359 78.31900391 39.6875 79.4375 C40.39261719 80.11683594 41.09773438 80.79617188 41.82421875 81.49609375 C43.91056301 83.1493031 43.91056301 83.1493031 46.44921875 83.49609375 C49.9929681 82.80688063 51.55202213 81.11929353 54.125 78.625 C60.82852564 72.20673077 60.82852564 72.20673077 65.1875 71.4375 C69.19216396 72.02835206 69.88095895 72.43264568 72.71484375 75.0234375 C73.4116626 75.65854248 74.10848145 76.29364746 74.82641602 76.94799805 C78.39171555 80.31386827 81.90634848 83.72210237 85.375 87.1875 C86.08527344 87.88552734 86.79554688 88.58355469 87.52734375 89.30273438 C88.54634766 90.31883789 88.54634766 90.31883789 89.5859375 91.35546875 C90.1948584 91.96028076 90.8037793 92.56509277 91.43115234 93.18823242 C93.98953002 96.14274857 94.96808339 98.20208466 95.125 102.125 C93.82803082 109.44813083 86.7850306 115.85642747 81 120 C72.02967603 124.56512435 60.80371109 122.3123546 51.63671875 119.38671875 C20.69494131 107.58829663 -4.52176883 83.34796525 -18.5625 53.41015625 C-23.6771367 41.27679257 -27.01951968 26.98368847 -23.08203125 13.96484375 C-18.89639989 5.85094996 -9.5812219 -1.95535141 0 0 Z M-13 9 C-18.04111355 14.30643532 -19.34761806 18.51708544 -19.25 25.75 C-19.24250732 26.47227783 -19.23501465 27.19455566 -19.22729492 27.9387207 C-19.12532622 32.97620251 -18.73043087 37.28887931 -17 42 C-16.52240234 43.43859375 -16.52240234 43.43859375 -16.03515625 44.90625 C-11.20884785 58.55641517 -3.03300266 69.8646131 6 81 C7.00353516 82.2375 7.00353516 82.2375 8.02734375 83.5 C22.55214895 100.60897299 45.2337891 114.80683896 67.78125 117.30859375 C73.37145473 117.58642019 77.62307311 116.6696483 82 113 C85.54243614 109.66343691 88.39514207 106.76001798 89.99609375 102.1015625 C90.00058773 98.53334261 89.10757293 97.26013329 86.68432617 94.71191406 C86.19037354 94.22948242 85.6964209 93.74705078 85.1875 93.25 C84.43786987 92.48381348 84.43786987 92.48381348 83.6730957 91.70214844 C82.63659812 90.64619916 81.59311961 89.59705946 80.54296875 88.5546875 C79.06974408 87.07027378 77.65522146 85.5486114 76.25 84 C75.404375 83.0925 74.55875 82.185 73.6875 81.25 C72.92824219 80.43015625 72.16898437 79.6103125 71.38671875 78.765625 C69.07860008 76.78538391 69.07860008 76.78538391 66 76.4609375 C62.15737014 77.15141005 60.90731733 78.50394558 58.3125 81.375 C52.42736761 87.77851192 52.42736761 87.77851192 47.375 88.5625 C41.54042344 88.37155022 38.15172411 84.75226801 34 81 C33.05898437 80.18917969 32.11796875 79.37835938 31.1484375 78.54296875 C9.90063431 59.96584353 9.90063431 59.96584353 8.5 49.1328125 C8.58729201 45.76739366 9.27347308 44.2039221 11.625 41.8046875 C12.7309982 40.80665579 13.85682399 39.8302214 15 38.875 C19.43566564 35.29696411 19.43566564 35.29696411 21.45605469 30.15429688 C20.85233325 25.97866465 19.30280301 24.55645211 16.328125 21.6015625 C15.84929871 21.1217392 15.37047241 20.64191589 14.87713623 20.14755249 C13.86535633 19.14043868 12.84621931 18.14066872 11.8203125 17.14794922 C10.25128195 15.62624328 8.71074615 14.07948103 7.171875 12.52734375 C-0.13292414 5.30498521 -3.93805814 3.23839499 -13 9 Z " fill="#065653" transform="translate(168,186)"/>
<path d="M0 0 C1.22355698 0.00222061 2.44711395 0.00444122 3.70774841 0.00672913 C4.71746201 0.00651009 4.71746201 0.00651009 5.74757385 0.00628662 C7.98229649 0.00698573 10.21693674 0.01477799 12.4516449 0.02259827 C13.99721226 0.02446245 15.54278022 0.02588635 17.08834839 0.02688599 C21.16380941 0.03071112 25.23923502 0.04054135 29.31468201 0.05158997 C33.47035747 0.0618042 37.62603864 0.06638363 41.78172302 0.07142639 C49.94124452 0.08216363 58.10073718 0.09923998 66.26023865 0.12025452 C65.93023865 4.08025452 65.60023865 8.04025452 65.26023865 12.12025452 C54.37023865 12.12025452 43.48023865 12.12025452 32.26023865 12.12025452 C32.75523865 14.10025452 32.75523865 14.10025452 33.26023865 16.12025452 C43.49023865 16.45025452 53.72023865 16.78025452 64.26023865 17.12025452 C64.26023865 19.43025452 64.26023865 21.74025452 64.26023865 24.12025452 C58.57214346 24.39594514 52.88807697 24.593464 47.19480896 24.72450256 C45.26638443 24.77921078 43.33840253 24.85381472 41.41160583 24.9500885 C29.47817776 25.53061687 21.00632673 25.05854161 11.62059021 17.10272217 C5.12432981 11.60766356 -1.52236186 11.65037662 -9.73976135 12.12025452 C-9.08588142 6.7480364 -7.84498699 4.71232695 -3.73976135 1.12025452 C-2.73976135 0.12025452 -2.73976135 0.12025452 0 0 Z " fill="#1FB286" transform="translate(148.73976135253906,86.87974548339844)"/>
<path d="M0 0 C33.99 0 67.98 0 103 0 C103.495 2.475 103.495 2.475 104 5 C69.35 5 34.7 5 -1 5 C-0.67 3.35 -0.34 1.7 0 0 Z " fill="#0D5957" transform="translate(262,107)"/>
<path d="M0 0 C0.73511307 0.00359528 1.47022614 0.00719055 2.22761536 0.01089478 C2.99829346 0.01074875 3.76897156 0.01060272 4.56300354 0.01045227 C7.12237823 0.01115157 9.68168104 0.01894471 12.24104309 0.02676392 C14.01081299 0.02862804 15.7805834 0.03005197 17.550354 0.03105164 C22.2176505 0.03487728 26.88491607 0.04470796 31.55220032 0.05575562 C36.31110719 0.06596873 41.07001905 0.07054904 45.82893372 0.07559204 C55.17334837 0.08633019 64.51774004 0.10340717 73.86213684 0.12442017 C73.86213684 1.44442017 73.86213684 2.76442017 73.86213684 4.12442017 C72.16545477 5.82110223 70.05081666 5.24411009 67.78773499 5.24884033 C67.06197266 5.24524506 66.33621033 5.24164978 65.5884552 5.23794556 C64.44706841 5.2381646 64.44706841 5.2381646 63.28262329 5.23838806 C60.75571386 5.23768878 58.22887722 5.22989571 55.70198059 5.22207642 C53.95463094 5.22021229 52.20728078 5.21878836 50.45993042 5.2177887 C45.8518175 5.21396309 41.24373589 5.20413245 36.63563538 5.19308472 C31.93705163 5.1828715 27.23846285 5.17829127 22.53987122 5.17324829 C13.31394597 5.16251022 4.088044 5.14543329 -5.13786316 5.12442017 C-5.70036316 3.18692017 -5.70036316 3.18692017 -6.13786316 1.12442017 C-4.42956906 -0.58387393 -2.27781939 0.0047009 0 0 Z " fill="#115C5A" transform="translate(292.1378631591797,132.87557983398438)"/>
<path d="M0 0 C23.76 0 47.52 0 72 0 C72.495 2.475 72.495 2.475 73 5 C48.58 5 24.16 5 -1 5 C-0.67 3.35 -0.34 1.7 0 0 Z " fill="#015551" transform="translate(363,276)"/>
<path d="M0 0 C18.15 0 36.3 0 55 0 C55.495 1.98 55.495 1.98 56 4 C55 5 55 5 52.75376892 5.12025452 C51.76115555 5.11803391 50.76854218 5.11581329 49.74584961 5.11352539 C48.62476303 5.11344986 47.50367645 5.11337433 46.34861755 5.11329651 C44.51896202 5.10555458 44.51896202 5.10555458 42.65234375 5.09765625 C41.41078018 5.0962413 40.16921661 5.09482635 38.89002991 5.09336853 C35.58394509 5.08870591 32.27792854 5.07971497 28.97186279 5.06866455 C25.6003885 5.05844827 22.22890717 5.05387045 18.85742188 5.04882812 C12.23826225 5.03777395 5.61913507 5.02101736 -1 5 C-0.67 3.35 -0.34 1.7 0 0 Z " fill="#00504E" transform="translate(363,299)"/>
<path d="M0 0 C0.95708359 0.00222061 1.91416718 0.00444122 2.9002533 0.00672913 C3.98129837 0.00680466 5.06234344 0.00688019 6.17614746 0.00695801 C7.94018166 0.01469994 7.94018166 0.01469994 9.73985291 0.02259827 C10.93702438 0.02401321 12.13419586 0.02542816 13.36764526 0.02688599 C17.20918732 0.03250472 21.05067208 0.04506041 24.89219666 0.05775452 C27.48920102 0.0627671 30.0862063 0.06733043 32.68321228 0.07142639 C39.06539344 0.08248024 45.44754096 0.0992366 51.82969666 0.12025452 C51.49969666 1.77025452 51.16969666 3.42025452 50.82969666 5.12025452 C33.33969666 5.12025452 15.84969666 5.12025452 -2.17030334 5.12025452 C-2.50030334 3.80025452 -2.83030334 2.48025452 -3.17030334 1.12025452 C-2.17030334 0.12025452 -2.17030334 0.12025452 0 0 Z " fill="#0B5755" transform="translate(314.17030334472656,157.87974548339844)"/>
<path d="M0 0 C3 2.0625 3 2.0625 5 5 C5 8.52133145 4.69441423 10.84264294 2.875 13.875 C-0.11945572 15.67167343 -2.52938771 15.94016186 -6 16 C-8.9375 14.5625 -8.9375 14.5625 -11 12 C-11.65360928 9.19636021 -11.61014545 6.8089715 -11 4 C-8.16650967 -0.53358453 -5.10426635 -0.80593679 0 0 Z M-5 6 C-4.67 7.32 -4.34 8.64 -4 10 C-3.01 9.01 -2.02 8.02 -1 7 C-2.32 6.67 -3.64 6.34 -5 6 Z " fill="#00504E" transform="translate(456,433)"/>
<path d="M0 0 C2.5 1.5 2.5 1.5 4 4 C4.61640633 7.5213097 4.72291824 10.75497415 2.875 13.9375 C0.17323836 15.46849826 -1.89435505 15.8757742 -5 16 C-8.52906067 14.39588152 -9.82772908 13.25840638 -12 10 C-11.82135713 6.66533315 -11.55604977 4.0139731 -9.9375 1.0625 C-6.73239318 -0.69513922 -3.5056583 -0.61366654 0 0 Z M-5 6 C-5 6.99 -5 7.98 -5 9 C-4.01 9 -3.02 9 -2 9 C-2 8.01 -2 7.02 -2 6 C-2.99 6 -3.98 6 -5 6 Z " fill="#004F4C" transform="translate(332,0)"/>
<path d="M0 0 C0.7734375 -0.00773437 1.546875 -0.01546875 2.34375 -0.0234375 C5.00698365 0.46868176 5.86561587 1.24929794 7.5 3.375 C8.58444457 6.93817503 8.80100515 8.67793543 7.3125 12.125 C5.38971429 14.5119064 4.43359496 15.53683001 1.5 16.375 C-1.57206958 16.18691411 -3.68597688 15.99748827 -6.16015625 14.10546875 C-7.86439477 11.90436769 -7.90259356 10.63435584 -7.875 7.875 C-7.88273438 7.1015625 -7.89046875 6.328125 -7.8984375 5.53125 C-7.04925027 0.93564854 -4.36327591 -0.04363276 0 0 Z M-1.5 6.375 C-1.17 7.695 -0.84 9.015 -0.5 10.375 C0.49 9.385 1.48 8.395 2.5 7.375 C1.18 7.045 -0.14 6.715 -1.5 6.375 Z " fill="#004F4D" transform="translate(7.5,301.625)"/>
<path d="M0 0 C2.125 0.9375 2.125 0.9375 4 2 C4 3.65 4 5.3 4 7 C5.98 7 7.96 7 10 7 C10.625 8.875 10.625 8.875 11 11 C9 13 9 13 6.375 13.125 C5.59125 13.08375 4.8075 13.0425 4 13 C4 14.65 4 16.3 4 18 C2.125 19.0625 2.125 19.0625 0 20 C-0.66 19.67 -1.32 19.34 -2 19 C-2 17.02 -2 15.04 -2 13 C-3.98 13 -5.96 13 -8 13 C-8.38218767 11.34385343 -8.71395102 9.67542976 -9 8 C-8 7 -8 7 -4.9375 6.9375 C-3.4834375 6.9684375 -3.4834375 6.9684375 -2 7 C-2 5.02 -2 3.04 -2 1 C-1.34 0.67 -0.68 0.34 0 0 Z M0 9 C0 9.66 0 10.32 0 11 C0.66 11 1.32 11 2 11 C2 10.34 2 9.68 2 9 C1.34 9 0.68 9 0 9 Z " fill="#005659" transform="translate(51,57)"/>
<path d="M0 0 C3.69230769 0.69230769 3.69230769 0.69230769 5 2 C5.04063832 3.66617115 5.042721 5.33388095 5 7 C6.98 7 8.96 7 11 7 C11.042721 8.66611905 11.04063832 10.33382885 11 12 C10 13 10 13 7.4375 13.0625 C6.633125 13.041875 5.82875 13.02125 5 13 C5.020625 13.804375 5.04125 14.60875 5.0625 15.4375 C5 18 5 18 4 19 C2.33382885 19.04063832 0.66611905 19.042721 -1 19 C-1 17.02 -1 15.04 -1 13 C-2.98 13 -4.96 13 -7 13 C-7.38218767 11.34385343 -7.71395102 9.67542976 -8 8 C-7 7 -7 7 -3.9375 6.9375 C-2.4834375 6.9684375 -2.4834375 6.9684375 -1 7 C-1.020625 6.030625 -1.04125 5.06125 -1.0625 4.0625 C-1 1 -1 1 0 0 Z M1 9 C1 9.66 1 10.32 1 11 C1.66 11 2.32 11 3 11 C3 10.34 3 9.68 3 9 C2.34 9 1.68 9 1 9 Z " fill="#004D4A" transform="translate(190,493)"/>
<path d="M0 0 C1.66611905 -0.042721 3.33382885 -0.04063832 5 0 C6 1 6 1 6.0625 3.5625 C6.041875 4.366875 6.02125 5.17125 6 6 C6.804375 5.979375 7.60875 5.95875 8.4375 5.9375 C11 6 11 6 12 7 C12.04063832 8.66617115 12.042721 10.33388095 12 12 C10.02 12 8.04 12 6 12 C6.04125 12.78375 6.0825 13.5675 6.125 14.375 C6 17 6 17 4 19 C1.875 18.625 1.875 18.625 0 18 C0 16.02 0 14.04 0 12 C-1.98 12 -3.96 12 -6 12 C-6.38218767 10.34385343 -6.71395102 8.67542976 -7 7 C-6 6 -6 6 -2.9375 5.9375 C-1.4834375 5.9684375 -1.4834375 5.9684375 0 6 C0 4.02 0 2.04 0 0 Z M2 8 C2 8.66 2 9.32 2 10 C2.66 10 3.32 10 4 10 C4 9.34 4 8.68 4 8 C3.34 8 2.68 8 2 8 Z " fill="#004F4C" transform="translate(500,220)"/>
<path d="M0 0 C3.875 0.875 3.875 0.875 5 2 C5.04063832 3.66617115 5.042721 5.33388095 5 7 C6.98 7 8.96 7 11 7 C11 8.65 11 10.3 11 12 C7.03869629 12 6.17085599 10.65122875 3.3125 8 C2.50425781 7.2575 1.69601563 6.515 0.86328125 5.75 C0.24839844 5.1725 -0.36648437 4.595 -1 4 C-0.67 2.68 -0.34 1.36 0 0 Z " fill="#005152" transform="translate(190,493)"/>
<path d="M0 0 C1.33333333 0.66666667 2.66666667 1.33333333 4 2 C4.66 2.268125 5.32 2.53625 6 2.8125 C8.70751471 4.42008686 10.20717344 6.43881919 12 9 C12 9.66 12 10.32 12 11 C11.01 11.33 10.02 11.66 9 12 C8.34 11.67 7.68 11.34 7 11 C7 9.02 7 7.04 7 5 C5.02 5 3.04 5 1 5 C0.67 3.35 0.34 1.7 0 0 Z " fill="#00483F" transform="translate(42,65)"/>
<path d="M0 0 C3.21043882 1.38188453 5.04936365 2.92421903 7.25 5.625 C8.03117187 6.57246094 8.03117187 6.57246094 8.828125 7.5390625 C9.40820312 8.26222656 9.40820312 8.26222656 10 9 C8.35 9 6.7 9 5 9 C4.67 7.68 4.34 6.36 4 5 C2.68 4.67 1.36 4.34 0 4 C0 2.68 0 1.36 0 0 Z " fill="#00463E" transform="translate(49,61)"/>
<path d="M0 0 C1.29608947 0.93137592 2.58671632 1.8703566 3.875 2.8125 C4.59429687 3.33457031 5.31359375 3.85664063 6.0546875 4.39453125 C8 6 8 6 10 9 C8.35 9 6.7 9 5 9 C4.67 7.68 4.34 6.36 4 5 C2.68 4.67 1.36 4.34 0 4 C0 2.68 0 1.36 0 0 Z " fill="#00463D" transform="translate(189,497)"/>
<path d="M0 0 C-0.99 1.485 -0.99 1.485 -2 3 C-4.6015625 3.29296875 -4.6015625 3.29296875 -7.625 3.1875 C-9.12933594 3.14689453 -9.12933594 3.14689453 -10.6640625 3.10546875 C-11.82035156 3.05326172 -11.82035156 3.05326172 -13 3 C-8.8341563 0.22277086 -4.9360889 -1.89849573 0 0 Z " fill="#1DCE9D" transform="translate(220,79)"/>
<path d="M0 0 C2.475 0.495 2.475 0.495 5 1 C5.33 1.99 5.66 2.98 6 4 C8.00016466 5.20882096 8.00016466 5.20882096 10 6 C10 6.66 10 7.32 10 8 C8.0625 7.6875 8.0625 7.6875 6 7 C5.67 6.01 5.34 5.02 5 4 C3.68352881 3.30062468 2.34977849 2.63270867 1 2 C0.67 1.34 0.34 0.68 0 0 Z " fill="#005A5F" transform="translate(185,500)"/>
<path d="M0 0 C0.66 0 1.32 0 2 0 C3.38938077 1.96147874 4.7260411 3.96166576 6 6 C4.02 6 2.04 6 0 6 C-0.38218767 4.34385343 -0.71395102 2.67542976 -1 1 C-0.67 0.67 -0.34 0.34 0 0 Z " fill="#004943" transform="translate(494,226)"/>
<path d="M0 0 C1.66611905 -0.042721 3.33382885 -0.04063832 5 0 C6 1 6 1 6.0625 3.5625 C6.041875 4.366875 6.02125 5.17125 6 6 C3.37812506 4.95125002 2.20628639 4.35068687 0.75 1.875 C0.5025 1.25625 0.255 0.6375 0 0 Z " fill="#00575A" transform="translate(500,220)"/>
<path d="M0 0 C2.0625 0.4375 2.0625 0.4375 4 1 C4.33 2.65 4.66 4.3 5 6 C1.83884224 4.63016497 1.0072908 4.0109362 -1 1 C-0.67 0.67 -0.34 0.34 0 0 Z " fill="#00595D" transform="translate(190,493)"/>
<path d="M0 0 C2.88437779 1.29299694 4.87219421 2.65941363 7 5 C5.02 5 3.04 5 1 5 C0.67 3.35 0.34 1.7 0 0 Z " fill="#00463E" transform="translate(182,501)"/>
<path d="M0 0 C1.66611905 -0.042721 3.33382885 -0.04063832 5 0 C6 1 6 1 6.0625 3.5625 C6.041875 4.366875 6.02125 5.17125 6 6 C3.97945196 4.35830472 1.97956942 2.69088222 0 1 C0 0.67 0 0.34 0 0 Z " fill="#00585C" transform="translate(506,226)"/>
</svg>
