<?xml version="1.0" encoding="UTF-8"?>
<svg version="1.1" xmlns="http://www.w3.org/2000/svg" width="512" height="512">
<path d="M0 0 C0.89115509 -0.00974854 1.78231018 -0.01949707 2.70046997 -0.02954102 C22.63293108 -0.20264286 41.86559565 0.06369901 61.4453125 4.23828125 C62.77079102 4.51115967 62.77079102 4.51115967 64.12304688 4.78955078 C105.34784078 13.49342708 143.65278781 33.55407357 174.4453125 62.23828125 C175.83675916 63.45166344 177.23239889 64.66025928 178.6328125 65.86328125 C185.12642006 71.55168147 190.72060083 77.62806502 196.12890625 84.36328125 C197.62026628 86.21427785 199.13192996 88.04918974 200.66796875 89.86328125 C211.37655764 102.55494215 219.73850793 116.5738543 227.4453125 131.23828125 C227.79303711 131.88893555 228.14076172 132.53958984 228.49902344 133.20996094 C239.66788692 154.35997462 246.75126165 178.69014258 250.4453125 202.23828125 C250.62787598 203.39384521 250.81043945 204.54940918 250.99853516 205.73999023 C252.59886637 217.00999862 252.84447883 228.17905615 252.8203125 239.55078125 C252.81949677 240.99969254 252.81949677 240.99969254 252.81866455 242.47787476 C252.75654087 266.55129834 249.41615617 289.15610162 242.4453125 312.23828125 C242.19442871 313.07343262 241.94354492 313.90858398 241.68505859 314.76904297 C231.64027637 347.38390177 213.65619439 377.32137709 190.4453125 402.23828125 C189.23193031 403.62972791 188.02333447 405.02536764 186.8203125 406.42578125 C149.47858224 449.17562417 90.54034404 475.71047083 34.4453125 480.23828125 C27.34592737 480.61601576 20.2404391 480.62838584 13.1328125 480.61328125 C12.16687164 480.61273743 11.20093079 480.6121936 10.20571899 480.6116333 C-5.69146444 480.57060916 -20.9742443 479.64585488 -36.5546875 476.23828125 C-37.54082031 476.02397461 -38.52695313 475.80966797 -39.54296875 475.58886719 C-80.68601851 466.32763679 -118.66455293 447.01341561 -149.5546875 418.23828125 C-150.94613416 417.02489906 -152.34177389 415.81630322 -153.7421875 414.61328125 C-160.2414509 408.91992651 -165.84238567 402.83961232 -171.25 396.09375 C-172.69580225 394.30242552 -174.16644909 392.53057919 -175.671875 390.7890625 C-207.31744649 353.8692291 -227.34870952 301.35876015 -227.79296875 252.68359375 C-227.8027626 251.79257462 -227.81255646 250.90155548 -227.82264709 249.98353577 C-228.06977464 221.65429212 -225.7888597 195.50365266 -217.5546875 168.23828125 C-217.17836182 166.9855542 -217.17836182 166.9855542 -216.79443359 165.70751953 C-203.42490392 122.29738749 -175.36083111 81.26686088 -139.5546875 53.23828125 C-138.56984375 52.44808594 -137.585 51.65789062 -136.5703125 50.84375 C-98.53859031 20.59941859 -48.96468094 0.44659656 0 0 Z " fill="#FE5953" transform="translate(243.5546875,15.76171875)"/>
<path d="M0 0 C2.27068043 1.74217606 2.27068043 1.74217606 4.6254425 4.0569458 C5.52421616 4.93143372 6.42298981 5.80592163 7.34899902 6.70690918 C8.33226664 7.68360097 9.31529074 8.66053797 10.2980957 9.63769531 C11.342401 10.66184109 12.3874802 11.68519824 13.43327332 12.70782471 C16.26963219 15.48748778 19.09253126 18.28043309 21.91145349 21.07776737 C23.67451759 22.82687134 25.43977292 24.5737348 27.20567894 26.31996918 C32.7349798 31.78921169 38.25581097 37.26680718 43.76511794 42.75619054 C50.11581815 49.08369019 56.49338625 55.38235087 62.89586955 61.65743947 C67.848897 66.51530436 72.77652807 71.39800932 77.68585843 76.30002666 C80.61591646 79.2246014 83.55550011 82.1377231 86.52205849 85.0253067 C89.31486958 87.74511796 92.07468225 90.49462143 94.81291389 93.26934052 C95.81910432 94.27832603 96.83636281 95.27642121 97.86549759 96.26199341 C105.58052968 103.66913225 105.58052968 103.66913225 106.61081505 109.39411163 C106.64082996 112.6755569 106.43650566 115.75028667 106 119 C105.89199224 119.97254353 105.78398447 120.94508705 105.67270374 121.94710159 C105.35483507 124.59233231 104.91747827 127.19196966 104.4375 129.8125 C104.26331543 130.78388916 104.08913086 131.75527832 103.90966797 132.75610352 C101.76563098 144.07165291 98.55629619 155.0559941 95 166 C94.64083496 167.10649902 94.64083496 167.10649902 94.27441406 168.23535156 C84.14988041 198.66773065 66.8015543 226.59601038 45 250 C43.78661781 251.39144666 42.57802197 252.78708639 41.375 254.1875 C7.12736597 293.3951362 -44.30167707 317.55368391 -95 326 C-95.80759766 326.1345459 -96.61519531 326.2690918 -97.44726562 326.40771484 C-99.77427174 326.77937635 -102.10297783 327.11676094 -104.4375 327.4375 C-105.12932373 327.54288086 -105.82114746 327.64826172 -106.53393555 327.75683594 C-111.17516089 328.3227686 -113.22848604 327.64027167 -117 325 C-119.04669602 323.13208688 -121.0084248 321.25330909 -122.95417786 319.28633118 C-123.53423086 318.70798702 -124.11428387 318.12964286 -124.71191424 317.53377312 C-126.64972006 315.59925529 -128.58030199 313.65768775 -130.51098633 311.71606445 C-131.90043908 310.32604744 -133.29033261 308.93647091 -134.68063354 307.54730225 C-138.45123762 303.7772721 -142.21564248 300.00110635 -145.97897172 296.22381616 C-149.91385676 292.27643048 -153.85440449 288.33470605 -157.7943573 284.39237976 C-165.25326707 276.92725327 -172.70706383 269.45704306 -180.15904111 261.98499697 C-188.64356154 253.47812354 -197.13376021 244.97692694 -205.6244427 236.47620451 C-223.08929128 218.99044958 -240.54699016 201.49757095 -258 184 C-255.2485309 183.08284363 -253.67167141 182.87903655 -250.84256458 182.89091873 C-249.99157651 182.89201118 -249.14058843 182.89310362 -248.26381284 182.89422917 C-247.32861694 182.90055261 -246.39342104 182.90687605 -245.42988586 182.91339111 C-244.43658034 182.91606452 -243.44327482 182.91873792 -242.41986912 182.92149234 C-239.07585884 182.93159046 -235.73192108 182.94879123 -232.38793945 182.96582031 C-229.99656848 182.97428385 -227.60519566 182.9822368 -225.21382141 182.98971558 C-220.05571128 183.00646127 -214.89762044 183.02589496 -209.73952675 183.04709625 C-201.58370891 183.08012103 -193.42788163 183.10045819 -185.27201843 183.11834717 C-183.88265411 183.12145768 -182.49328981 183.12457535 -181.10392553 183.12770009 C-178.99819569 183.132426 -176.89246584 183.13714411 -174.78673593 183.14183249 C-166.846183 183.15955928 -158.90563394 183.17863964 -150.96508789 183.19921875 C-150.23917287 183.2010958 -149.51325786 183.20297286 -148.76534542 183.20490679 C-137.00827421 183.23578039 -125.25129873 183.28142074 -113.49429629 183.33162847 C-101.42112635 183.38274859 -89.34800695 183.41470609 -77.27473801 183.42977214 C-70.4970133 183.43883933 -63.71956317 183.45707719 -56.94194984 183.49808502 C-50.56518954 183.5359183 -44.18880117 183.55049268 -37.81193352 183.54724503 C-35.47221779 183.55021686 -33.13249475 183.5617718 -30.79286957 183.58256912 C-27.59645949 183.60971947 -24.40150422 183.60593127 -21.20503235 183.59454346 C-19.81896891 183.61741295 -19.81896891 183.61741295 -18.40490419 183.64074445 C-12.08996703 183.57249157 -7.88828378 182.04719823 -3 178 C2.55289126 171.58076232 1.57555923 163.66291016 1.54589844 155.60961914 C1.55464022 154.04209368 1.56512811 152.47457713 1.57722473 150.90707397 C1.60503156 146.66581689 1.6084906 142.42485174 1.60750484 138.18351674 C1.61063853 133.74584911 1.63626622 129.30831208 1.65948486 124.87071228 C1.70001352 116.47382126 1.7203782 108.07700785 1.73345876 99.6800341 C1.74933942 90.1177109 1.78775955 80.55551955 1.82805204 70.9932729 C1.91040808 51.32889211 1.96452703 31.66451759 2 12 C-1.91890503 14.18712873 -5.83650674 16.37658228 -9.75390625 18.56640625 C-10.84626587 19.17601196 -11.93862549 19.78561768 -13.06408691 20.41369629 C-20.39858249 24.51553565 -27.68532036 28.69189221 -34.9375 32.9375 C-36.04359619 33.58460938 -37.14969238 34.23171875 -38.28930664 34.8984375 C-39.15418701 35.40632813 -40.01906738 35.91421875 -40.91015625 36.4375 C-47.21570419 40.1321331 -53.54294436 43.78852681 -59.875 47.4375 C-60.95515381 48.06003662 -62.03530762 48.68257324 -63.14819336 49.32397461 C-65.33796334 50.58576826 -67.52782355 51.84740534 -69.71777344 53.10888672 C-75.14659939 56.23680147 -80.57321364 59.36854843 -86 62.5 C-92.13711687 66.04120203 -98.27437761 69.5821511 -104.4133606 73.12011719 C-106.80426597 74.49806938 -109.19498672 75.87634172 -111.58569336 77.25463867 C-113.26983963 78.22540982 -114.95425231 79.19571874 -116.63867188 80.16601562 C-117.66154297 80.75576172 -118.68441406 81.34550781 -119.73828125 81.953125 C-120.63587158 82.47036133 -121.53346191 82.98759766 -122.45825195 83.52050781 C-125.02555614 84.97176133 -125.02555614 84.97176133 -127.45385742 86.69042969 C-130.62473957 88.32132545 -132.46933977 88.43406518 -136 88 C-138.87060547 86.75341797 -138.87060547 86.75341797 -141.8671875 84.9921875 C-142.98754395 84.34241943 -144.10790039 83.69265137 -145.26220703 83.02319336 C-146.46660514 82.30735395 -147.67086602 81.59128361 -148.875 80.875 C-150.13195219 80.14016295 -151.38961254 79.40653599 -152.64794922 78.67407227 C-155.21160582 77.17898404 -157.77080728 75.6766969 -160.32617188 74.16748047 C-163.63207481 72.21500016 -166.94687681 70.27824332 -170.265625 68.34765625 C-174.1711476 66.07569824 -178.07323883 63.79804463 -181.97265625 61.515625 C-187.3581793 58.36806819 -192.76095061 55.25114742 -198.16821289 52.14111328 C-202.50137565 49.64712145 -206.82808779 47.14203852 -211.15527344 44.63769531 C-213.67121747 43.18927851 -216.19636734 41.75924118 -218.7265625 40.3359375 C-220.04715952 39.57862093 -221.36749968 38.82085614 -222.6875 38.0625 C-223.76386719 37.45535156 -224.84023437 36.84820312 -225.94921875 36.22265625 C-229.1733018 33.87374043 -231.39626579 31.39842761 -233.94506836 28.36108398 C-236.35199166 25.59556715 -238.90235187 22.99440981 -241.49609375 20.40625 C-241.97860092 19.92469955 -242.46110809 19.44314911 -242.95823669 18.94700623 C-244.44942646 17.46274743 -245.94338413 15.98131262 -247.4375 14.5 C-248.4657298 13.47679861 -249.49372626 12.45336267 -250.52148438 11.4296875 C-253.01164338 8.95042001 -255.50492833 6.47432462 -258 4 C-256.35009766 3.3203125 -256.35009766 3.3203125 -254 3 C-251.38818359 4.1171875 -251.38818359 4.1171875 -248.3984375 5.875 C-247.28194824 6.52283447 -246.16545898 7.17066895 -245.01513672 7.83813477 C-243.80165985 8.55859153 -242.5882836 9.2792178 -241.375 10 C-240.11415239 10.73680923 -238.85258528 11.47238852 -237.59033203 12.20678711 C-234.99027319 13.72158413 -232.39407466 15.2426938 -229.80078125 16.76904297 C-225.23754306 19.45223973 -220.64967859 22.0921013 -216.06054688 24.73071289 C-212.85039658 26.57664772 -209.64352539 28.42816149 -206.4375 30.28125 C-202.10591493 32.7842949 -197.77255397 35.28421773 -193.4375 37.78125 C-182.71651155 43.95746295 -172.0042792 50.1483376 -161.3125 56.375 C-160.32064697 56.95072754 -159.32879395 57.52645508 -158.30688477 58.11962891 C-153.94697659 60.65829104 -149.61177838 63.21940229 -145.34375 65.91015625 C-144.65240967 66.34215332 -143.96106934 66.77415039 -143.2487793 67.21923828 C-142.00758473 68.00016892 -140.77383121 68.79313035 -139.55004883 69.60107422 C-137.08079704 71.15173317 -135.56091082 72.06117777 -132.609375 71.73925781 C-129.88923538 70.96861946 -127.77373236 69.95650377 -125.32421875 68.55078125 C-124.42678955 68.03990967 -123.52936035 67.52903809 -122.60473633 67.00268555 C-121.16070435 66.1660437 -121.16070435 66.1660437 -119.6875 65.3125 C-118.67131592 64.73089111 -117.65513184 64.14928223 -116.6081543 63.55004883 C-108.49150763 58.89352882 -100.4111602 54.17374458 -92.33666992 49.44458008 C-84.58776769 44.90989881 -76.80085592 40.44437449 -69 36 C-60.26587003 31.02287146 -51.55379561 26.0107586 -42.875 20.9375 C-41.91940186 20.38118896 -40.96380371 19.82487793 -39.97924805 19.25170898 C-35.20937594 16.47278174 -30.45090982 13.67704988 -25.71490479 10.84086609 C-23.33185956 9.41693297 -20.94203875 8.00463122 -18.55108643 6.59402466 C-16.84869993 5.58397786 -15.15542749 4.55861982 -13.46240234 3.53295898 C-11.91286865 2.62139038 -11.91286865 2.62139038 -10.33203125 1.69140625 C-9.42171143 1.14685791 -8.5113916 0.60230957 -7.57348633 0.04125977 C-4.41531102 -1.23657134 -3.22666417 -1.00503079 0 0 Z " fill="#DB3A3C" transform="translate(389,168)"/>
<path d="M0 0 C3.9059352 1.26382897 7.32206456 2.59219194 10.8515625 4.6953125 C11.77066406 5.23800781 12.68976563 5.78070313 13.63671875 6.33984375 C14.62285156 6.92894531 15.60898438 7.51804688 16.625 8.125 C18.78313461 9.39965657 20.94201956 10.6730434 23.1015625 11.9453125 C24.22981445 12.61079102 25.35806641 13.27626953 26.52050781 13.96191406 C31.72922437 17.02196638 36.98107186 20.00649895 42.23168945 22.99386597 C52.54471345 28.86177443 62.8211188 34.78895249 73.0625 40.78125 C81.43558159 45.67850329 89.83160314 50.53518922 98.24560547 55.36181641 C103.78382253 58.54380725 109.29361582 61.76384992 114.765625 65.05859375 C115.85488281 65.70957031 116.94414062 66.36054688 118.06640625 67.03125 C120.13805037 68.27169458 122.20354408 69.52248878 124.26171875 70.78515625 C125.19113281 71.33945313 126.12054688 71.89375 127.078125 72.46484375 C127.88668945 72.955896 128.69525391 73.44694824 129.52832031 73.95288086 C132.62773873 75.26593949 134.65578673 75.37872615 138 75 C140.95229195 73.78696585 140.95229195 73.78696585 143.8671875 71.9921875 C144.98754395 71.34241943 146.10790039 70.69265137 147.26220703 70.02319336 C148.46660514 69.30735395 149.67086602 68.59128361 150.875 67.875 C152.13195219 67.14016295 153.38961254 66.40653599 154.64794922 65.67407227 C157.21160582 64.17898404 159.77080728 62.6766969 162.32617188 61.16748047 C165.63207481 59.21500016 168.94687681 57.27824332 172.265625 55.34765625 C176.18518261 53.06740436 180.10170511 50.78210244 184.015625 48.4921875 C193.55822933 42.91570844 203.14057793 37.40788509 212.71777344 31.89111328 C217.06632331 29.38561884 221.41344016 26.87764566 225.76025391 24.36914062 C227.9053934 23.13152284 230.05089633 21.89453476 232.19677734 20.65820312 C237.30087709 17.71672589 242.40132435 14.7693538 247.49072266 11.80252075 C249.90938314 10.39302963 252.32985862 8.98667235 254.75048828 7.58056641 C256.46956052 6.58021318 258.1859782 5.57530266 259.90234375 4.5703125 C261.45115234 3.67119141 261.45115234 3.67119141 263.03125 2.75390625 C263.94455078 2.22095947 264.85785156 1.6880127 265.79882812 1.13891602 C268 0 268 0 270 0 C270.11687607 20.59278999 270.20500916 41.18552517 270.25906086 61.77857971 C270.28482672 71.34061785 270.31994628 80.90244973 270.37719727 90.46435547 C270.42708182 98.79992246 270.45930278 107.13534005 270.47044247 115.47105217 C270.4769527 119.88355889 270.4922196 124.29563825 270.52865028 128.70800781 C270.56268979 132.86460009 270.57303707 137.02059061 270.56553841 141.17730904 C270.56690942 142.69946123 270.57679492 144.22163439 270.59602737 145.7436657 C270.77870681 160.9518018 270.77870681 160.9518018 265 167 C259.19879486 171.82173398 254.21828403 172.72444532 246.82861328 172.63491821 C245.83103563 172.64271817 244.83345798 172.65051812 243.80565071 172.65855443 C240.47682432 172.67843177 237.14914654 172.66272579 233.8203125 172.64697266 C231.42819554 172.65375062 229.0360838 172.66265476 226.64398193 172.67352295 C220.82961241 172.69393738 215.0156053 172.69097463 209.2012248 172.67645974 C204.47414981 172.66514957 199.74716522 172.66364425 195.02008057 172.66907883 C194.34628613 172.66984499 193.67249169 172.67061116 192.97827923 172.67140054 C191.60930933 172.67299923 190.24033945 172.6746203 188.8713696 172.6762635 C176.04641575 172.69050775 163.22164085 172.67414916 150.39671636 172.64726166 C139.40175778 172.62492401 128.40706319 172.62880451 117.41210938 172.65185547 C104.63182418 172.67863699 91.85169567 172.68913458 79.07138634 172.67379415 C77.70756406 172.67220147 76.34374176 172.67062962 74.97991943 172.66907883 C74.30896213 172.66830745 73.63800482 172.66753607 72.94671547 172.66674132 C68.22747978 172.66243135 63.50834379 172.66969564 58.78912354 172.68147659 C52.43272061 172.69592897 46.07681578 172.68588453 39.72046661 172.65700531 C37.38884559 172.65039876 35.05718259 172.65228472 32.72557831 172.66331863 C29.54028352 172.67700177 26.35658035 172.6598229 23.17138672 172.63491821 C21.79043918 172.65164863 21.79043918 172.65164863 20.3815937 172.66871703 C14.08610324 172.57337365 9.86613655 171.04454168 5 167 C-1.40990953 160.29116278 -0.67788432 152.22171695 -0.56762695 143.49609375 C-0.56621495 141.92843166 -0.56701144 140.36076626 -0.56983948 138.79310608 C-0.57126911 134.5558188 -0.54195345 130.31924487 -0.50696969 126.0821228 C-0.47563019 121.64723363 -0.47276948 117.21232657 -0.46684265 112.77734375 C-0.45132645 104.38741047 -0.41032826 95.99780448 -0.3600952 87.60801506 C-0.30413235 78.05303952 -0.27669781 68.49804803 -0.25161803 58.9429493 C-0.19941031 39.29511714 -0.11151145 19.64757922 0 0 Z " fill="#FEFEFE" transform="translate(121,180)"/>
<path d="M0 0 C1.49636647 -0.01169993 1.49636647 -0.01169993 3.02296257 -0.02363622 C6.35178896 -0.04351355 9.67946675 -0.02780758 13.00830078 -0.01205444 C15.40041774 -0.01883241 17.79252948 -0.02773654 20.18463135 -0.03860474 C25.99900087 -0.05901917 31.81300798 -0.05605642 37.62738848 -0.04154153 C42.35446347 -0.03023136 47.08144806 -0.02872604 51.80853271 -0.03416061 C52.48232715 -0.03492678 53.15612159 -0.03569294 53.85033405 -0.03648233 C55.21930395 -0.03808102 56.58827383 -0.03970209 57.95724368 -0.04134528 C70.78219753 -0.05558954 83.60697243 -0.03923095 96.43189692 -0.01234345 C107.4268555 0.00999421 118.42155009 0.0061137 129.41650391 -0.01693726 C142.1967891 -0.04371877 154.97691761 -0.05421637 167.75722694 -0.03887594 C169.12104922 -0.03728326 170.48487152 -0.0357114 171.84869385 -0.03416061 C172.85512981 -0.03300355 172.85512981 -0.03300355 173.88189781 -0.03182311 C178.60113351 -0.02751313 183.32026949 -0.03477743 188.03948975 -0.04655838 C194.39589267 -0.06101076 200.7517975 -0.05096631 207.10814667 -0.0220871 C209.43976769 -0.01548054 211.7714307 -0.0173665 214.10303497 -0.02840042 C217.28832976 -0.04208355 220.47203293 -0.02490469 223.65722656 0 C224.57785826 -0.01115361 225.49848995 -0.02230722 226.44701958 -0.03379881 C232.82386035 0.06277659 236.7833159 1.75267971 241.82861328 5.63491821 C239.01218314 8.66329805 236.25656848 10.74239142 232.66455078 12.77944946 C231.6382959 13.36605347 230.61204102 13.95265747 229.5546875 14.55703735 C228.44883301 15.18086304 227.34297852 15.80468872 226.20361328 16.44741821 C225.0380195 17.11136274 223.8728244 17.77600762 222.70800781 18.4413147 C220.28752608 19.82305747 217.86535986 21.20177491 215.44189453 22.57827759 C209.84753338 25.75869511 204.27627227 28.97917812 198.70361328 32.19741821 C197.6262793 32.81858521 196.54894531 33.4397522 195.43896484 34.07974243 C187.28032321 38.78646255 179.14613737 43.53416576 171.01660156 48.29092407 C165.62854924 51.43741584 160.22690952 54.55854818 154.80517578 57.64663696 C153.9125428 58.15520233 153.9125428 58.15520233 153.00187683 58.67404175 C150.59951531 60.04207034 148.19682007 61.40948383 145.79177856 62.77279663 C139.7324969 66.20759693 133.7045159 69.67614922 127.78564453 73.34976196 C126.86750977 73.91743286 125.949375 74.48510376 125.00341797 75.06997681 C123.31222252 76.12357577 121.62866246 77.18957334 119.95458984 78.27017212 C119.21305664 78.73213989 118.47152344 79.19410767 117.70751953 79.67007446 C116.75727905 80.27927734 116.75727905 80.27927734 115.7878418 80.90078735 C113.08917614 81.9119883 111.56373399 81.46718685 108.82861328 80.63491821 C106.53051758 79.55020142 106.53051758 79.55020142 104.15283203 78.18569946 C103.2552417 77.67474731 102.35765137 77.16379517 101.43286133 76.63735962 C99.98907104 75.80083862 99.98907104 75.80083862 98.51611328 74.94741821 C96.99401245 74.07609253 96.99401245 74.07609253 95.44116211 73.18716431 C86.26102677 67.91979253 77.12298247 62.57907198 67.98876953 57.23257446 C61.65774352 53.52978853 55.30797876 49.85997411 48.95361328 46.19741821 C47.8750708 45.57568726 46.79652832 44.9539563 45.68530273 44.31338501 C42.40000553 42.42010069 39.1143734 40.52739904 35.82861328 38.63491821 C28.24274832 34.26573011 20.65943376 29.89221071 13.08056641 25.51089478 C9.72410017 23.57462702 6.3624342 21.64759057 3.00048828 19.72085571 C0.81804602 18.46330453 -1.3642511 17.20550141 -3.54638672 15.94741821 C-4.55717285 15.37112671 -5.56795898 14.79483521 -6.609375 14.20108032 C-7.54507324 13.65975464 -8.48077148 13.11842896 -9.44482422 12.56069946 C-10.2638623 12.09059448 -11.08290039 11.6204895 -11.92675781 11.13613892 C-14.32519667 9.53204923 -16.20132362 7.73505852 -18.17138672 5.63491821 C-12.13797853 0.99235152 -7.52043188 -0.0911113 0 0 Z " fill="#FEFDFD" transform="translate(144.17138671875,159.36508178710938)"/>
</svg>
