<?xml version="1.0" encoding="UTF-8"?>
<svg version="1.1" xmlns="http://www.w3.org/2000/svg" width="512" height="512">
<path d="M0 0 C1.01790619 0.00215515 2.03581238 0.0043103 3.08456421 0.00653076 C17.69363523 0.05620146 32.02575853 0.30709809 46.375 3.3125 C47.34985352 3.51117676 48.32470703 3.70985352 49.32910156 3.91455078 C97.7109774 14.03517194 141.69928269 35.9516877 177.375 70.3125 C178.3640332 71.26068604 178.3640332 71.26068604 179.37304688 72.22802734 C188.86130305 81.37247479 197.6012044 90.66984009 205.375 101.3125 C206.23306152 102.46355017 207.09113451 103.61459177 207.94921875 104.765625 C213.98736829 112.95680614 219.34595521 121.47054105 224.375 130.3125 C224.73948242 130.94430176 225.10396484 131.57610352 225.47949219 132.22705078 C247.08534998 169.97532572 256.85198095 212.74189997 256.6875 255.9375 C256.68534485 256.95540619 256.6831897 257.97331238 256.68096924 259.02206421 C256.63129854 273.63113523 256.38040191 287.96325853 253.375 302.3125 C253.07698486 303.77478027 253.07698486 303.77478027 252.77294922 305.26660156 C242.65232806 353.6484774 220.7358123 397.63678269 186.375 433.3125 C185.74287598 433.97185547 185.11075195 434.63121094 184.45947266 435.31054688 C175.31502521 444.79880305 166.01765991 453.5387044 155.375 461.3125 C154.22394983 462.17056152 153.07290823 463.02863451 151.921875 463.88671875 C143.73224019 469.92427396 135.22961724 475.30707302 126.375 480.3125 C125.66778809 480.7146875 124.96057617 481.116875 124.23193359 481.53125 C101.09654164 494.5566741 75.92537591 503.30551461 49.9375 508.625 C49.21860596 508.77235596 48.49971191 508.91971191 47.7590332 509.0715332 C33.08339502 511.86090125 18.55831162 512.66142619 3.64770508 512.62817383 C0.70811513 512.6250221 -2.2304558 512.64854926 -5.16992188 512.67382812 C-18.54306192 512.71848737 -31.43916711 511.51301542 -44.625 509.3125 C-46.33055054 509.03031616 -46.33055054 509.03031616 -48.07055664 508.74243164 C-91.33802759 500.97044532 -132.38793216 480.98345309 -165.625 452.3125 C-166.37007813 451.67828125 -167.11515625 451.0440625 -167.8828125 450.390625 C-181.38779833 438.57948485 -194.05918743 425.82889772 -204.625 411.3125 C-205.48149066 410.16255169 -206.33826433 409.01281411 -207.1953125 407.86328125 C-213.23534209 399.67315742 -218.61867614 391.16870382 -223.625 382.3125 C-224.0271875 381.60528809 -224.429375 380.89807617 -224.84375 380.16943359 C-237.8691741 357.03404164 -246.61801461 331.86287591 -251.9375 305.875 C-252.08485596 305.15610596 -252.23221191 304.43721191 -252.3840332 303.6965332 C-255.35789088 288.05024391 -255.99800362 272.57681954 -255.9375 256.6875 C-255.93534485 255.66959381 -255.9331897 254.65168762 -255.93096924 253.60293579 C-255.88129854 238.99386477 -255.63040191 224.66174147 -252.625 210.3125 C-252.42632324 209.33764648 -252.22764648 208.36279297 -252.02294922 207.35839844 C-241.90232806 158.9765226 -219.9858123 114.98821731 -185.625 79.3125 C-184.99287598 78.65314453 -184.36075195 77.99378906 -183.70947266 77.31445312 C-174.56502521 67.82619695 -165.26765991 59.0862956 -154.625 51.3125 C-153.47394983 50.45443848 -152.32290823 49.59636549 -151.171875 48.73828125 C-142.98224019 42.70072604 -134.47961724 37.31792698 -125.625 32.3125 C-124.91778809 31.9103125 -124.21057617 31.508125 -123.48193359 31.09375 C-100.34654164 18.0683259 -75.17537591 9.31948539 -49.1875 4 C-48.46860596 3.85264404 -47.74971191 3.70528809 -47.0090332 3.5534668 C-31.36274391 0.57960912 -15.88931954 -0.06050362 0 0 Z " fill="#32BEA6" transform="translate(255.625,-0.3125)"/>
<path d="M0 0 C1.06968435 -0.00384115 2.13936869 -0.00768229 3.24146771 -0.01163983 C4.42607044 -0.01077335 5.61067317 -0.00990687 6.83117294 -0.00901413 C8.70786199 -0.01347081 8.70786199 -0.01347081 10.62246394 -0.01801753 C14.10664881 -0.02610563 17.5908131 -0.02787811 21.07500625 -0.028615 C24.82836446 -0.03046244 28.58171192 -0.03800825 32.33506393 -0.04475021 C40.54789488 -0.05834737 48.76072096 -0.06436053 56.97356129 -0.06876087 C62.09975221 -0.07152122 67.22594124 -0.07575821 72.35213089 -0.08026505 C86.53908927 -0.09246 100.72604613 -0.10275855 114.91300964 -0.10614014 C115.82148668 -0.1063597 116.72996372 -0.10657927 117.66597037 -0.10680549 C118.57665045 -0.10702377 119.48733052 -0.10724204 120.42560697 -0.10746694 C122.27106174 -0.10791041 124.11651651 -0.10835697 125.96197128 -0.10880661 C126.87738515 -0.10902804 127.79279902 -0.10924947 128.73595271 -0.10947761 C143.56923982 -0.11342568 158.4024778 -0.13087896 173.23574594 -0.15416613 C188.45710722 -0.17787008 203.67844386 -0.19034157 218.8998239 -0.19150805 C227.44915423 -0.19242541 235.99842058 -0.19819274 244.54773331 -0.21632767 C251.82793756 -0.23171583 259.10805806 -0.23685677 266.38827547 -0.22858956 C270.10343465 -0.22467835 273.81842511 -0.22563545 277.53356361 -0.23964691 C281.56021656 -0.25469443 285.58648805 -0.24653325 289.61315536 -0.23606491 C290.7888352 -0.24412132 291.96451504 -0.25217772 293.17582154 -0.26047826 C299.83440079 -0.21985389 304.77079478 0.11424504 309.83941269 4.88533401 C310.31765488 5.48216995 310.79589706 6.07900589 311.28863144 6.69392776 C311.77976425 7.29334183 312.27089706 7.89275589 312.77691269 8.51033401 C315.57127645 12.28773128 315.12431046 15.9741574 315.12330246 20.49379349 C315.12697915 21.3692327 315.13065584 22.24467191 315.13444394 23.14663959 C315.14550954 26.0976295 315.14932948 29.04858424 315.15313339 31.99959183 C315.15939586 34.10835254 315.16604247 36.21711214 315.17304611 38.32587051 C315.19047577 44.06770352 315.20101318 49.80952819 315.20925164 55.55138111 C315.21439752 59.13648309 315.22047343 62.72158245 315.22676277 66.30668259 C315.24582013 77.5172057 315.26005024 88.7277222 315.26837474 99.93825841 C315.27815086 112.89085161 315.30447799 125.84327409 315.34487563 138.79580712 C315.37500768 148.79925695 315.38984084 158.80265776 315.39315575 168.80615211 C315.39550952 174.78452986 315.40451253 180.76272535 315.42961693 186.74105453 C315.45285168 192.36514485 315.4571493 197.98893228 315.44685555 203.61305809 C315.44635896 205.67784824 315.45271539 207.74265306 315.46641159 209.80739784 C315.48406085 212.62567273 315.47705859 215.44285247 315.46387863 218.26112747 C315.47484788 219.07884007 315.48581712 219.89655266 315.49711877 220.73904443 C315.43769515 225.99965512 314.4230794 228.93783105 310.97613144 233.13142776 C306.66063921 237.01537077 303.17555543 239.39076526 297.29937363 239.35847855 C295.89921005 239.358116 295.89921005 239.358116 294.47076035 239.35774612 C293.49800156 239.34751419 292.52524277 239.33728226 291.52300644 239.32674026 C290.62275742 239.3247261 289.72250839 239.32271194 288.7949791 239.32063675 C285.43864456 239.3101888 282.08238278 239.28226619 278.72613144 239.25642776 C267.46488144 239.19455276 267.46488144 239.19455276 255.97613144 239.13142776 C255.97613144 264.54142776 255.97613144 289.95142776 255.97613144 316.13142776 C250.11361524 312.22308363 244.6607922 308.4141231 239.28863144 303.94392776 C237.89224762 302.79587756 236.49509819 301.64875802 235.09722519 300.50252151 C234.40612656 299.93517288 233.71502792 299.36782425 233.00298691 298.78328323 C229.98122864 296.32059756 226.92119694 293.90846371 223.85113144 291.50642776 C223.28176865 291.06081497 222.71240585 290.61520218 222.12578964 290.15608597 C220.98211212 289.26176099 219.8381519 288.36779742 218.69390488 287.4742012 C215.78341536 285.19908859 212.88014437 282.91479733 209.97613144 280.63142776 C206.48962043 277.8908815 203.00234986 275.15133145 199.51128769 272.41658401 C192.84791457 267.19394022 186.21617314 261.9343906 179.61260605 256.63631058 C174.52907105 252.56202149 169.41239228 248.53118302 164.27886581 244.52009964 C160.0771269 241.23242323 160.0771269 241.23242323 158.97613144 240.13142776 C156.89318523 240.03327663 154.80685701 240.00678226 152.72159958 240.00685501 C152.06077065 240.00544486 151.39994171 240.00403471 150.71908766 240.00258183 C148.48826034 239.99891033 146.25749585 240.00227333 144.02666855 240.0054512 C142.43360977 240.00405726 140.84055137 240.00215849 139.24749374 239.99979019 C135.80765548 239.99528328 132.36782919 239.99343689 128.92798805 239.99332809 C123.48588016 239.99219 118.04384047 239.97936695 112.60175705 239.96376419 C111.68402746 239.96119134 110.76629786 239.95861848 109.82075828 239.95596766 C107.94353544 239.95070064 106.06631264 239.94541516 104.18908989 239.94011164 C91.51465928 239.90498744 78.84031199 239.87844647 66.1658287 239.88093948 C57.62396428 239.88252934 49.08233108 239.86645929 40.54054075 239.83023286 C36.01968904 239.81178506 31.49922325 239.80241914 26.97834206 239.81470871 C22.72067929 239.82616929 18.46370603 239.81438635 14.2061348 239.78507423 C12.64693891 239.77844833 11.08767962 239.78027535 9.52850914 239.7913723 C-5.84442918 239.89166719 -5.84442918 239.89166719 -12.02386856 234.13142776 C-16.73826689 228.93350141 -17.17256517 225.60940317 -17.17103958 218.76906204 C-17.17471627 217.89362283 -17.17839296 217.01818362 -17.18218106 216.11621594 C-17.19324666 213.16522603 -17.1970666 210.21427129 -17.20087051 207.2632637 C-17.20713298 205.15450299 -17.21377959 203.04574339 -17.22078323 200.93698502 C-17.23821289 195.19515201 -17.2487503 189.45332734 -17.25698876 183.71147442 C-17.26213464 180.12637244 -17.26821055 176.54127308 -17.27449989 172.95617294 C-17.29355725 161.74564983 -17.30778736 150.53513333 -17.31611186 139.32459712 C-17.32588798 126.37200391 -17.35221511 113.41958144 -17.39261276 100.46704841 C-17.4227448 90.46359858 -17.43757797 80.46019777 -17.44089288 70.45670342 C-17.44324665 64.47832567 -17.45224965 58.50013018 -17.47735405 52.52180099 C-17.5005888 46.89771068 -17.50488642 41.27392325 -17.49459267 35.64979744 C-17.49409608 33.58500729 -17.50045251 31.52020247 -17.51414871 29.45545769 C-17.53179798 26.6371828 -17.52479571 23.82000306 -17.51161575 21.00172806 C-17.522585 20.18401546 -17.53355425 19.36630287 -17.54485589 18.5238111 C-17.47659001 12.48041906 -15.7307382 8.8577247 -11.39105606 4.48689651 C-7.22041979 1.22244561 -5.24981798 0.00704719 0 0 Z " fill="#FEFEFE" transform="translate(107.02386856079102,124.86857223510742)"/>
<path d="M0 0 C7.55215896 6.16524885 14.25801302 13.19411569 21.09985352 20.12036133 C28.33301405 27.51156289 28.33301405 27.51156289 35.97265625 34.47265625 C42.61551763 40.13305565 48.59775712 46.54549759 54.72753906 52.74804688 C60.97612597 59.06412847 67.23011159 65.23755672 74 71 C76.8444613 73.48873648 79.62122154 76.03655158 82.375 78.625 C83.08527344 79.24761719 83.79554688 79.87023437 84.52734375 80.51171875 C92.5311392 88.15101498 91.98950965 97.25149539 92.25186157 107.70106506 C92.33664631 112.5926366 92.33081213 117.48287164 92.3125 122.375 C92.31034485 123.40289642 92.3081897 124.43079285 92.30596924 125.48983765 C92.25643772 140.1724964 92.02057841 154.5782986 89 169 C88.70198486 170.46228027 88.70198486 170.46228027 88.39794922 171.95410156 C78.27732806 220.3359774 56.3608123 264.32428269 22 300 C21.36787598 300.65935547 20.73575195 301.31871094 20.08447266 301.99804688 C10.94002521 311.48630305 1.64265991 320.2262044 -9 328 C-10.15105017 328.85806152 -11.30209177 329.71613451 -12.453125 330.57421875 C-20.64275981 336.61177396 -29.14538276 341.99457302 -38 347 C-38.70721191 347.4021875 -39.41442383 347.804375 -40.14306641 348.21875 C-66.09647306 362.83074055 -94.65724638 372.13386118 -124 377 C-124.67949707 377.11714355 -125.35899414 377.23428711 -126.05908203 377.35498047 C-130.17724027 378.0398138 -134.26516956 378.47198659 -138.42871094 378.76708984 C-140.32320591 378.93869526 -142.21207817 379.17536694 -144.09472656 379.44775391 C-164.58153765 382.34359394 -164.58153765 382.34359394 -172.37988281 376.84667969 C-178.85022543 371.67830726 -184.26082622 365.34419098 -189.42480469 358.90600586 C-192.04488425 355.9493499 -194.82238051 353.48861261 -197.81622314 350.92555237 C-201.80753264 347.4062022 -205.50800285 343.59290146 -209.25 339.8125 C-210.53632324 338.52049683 -210.53632324 338.52049683 -211.84863281 337.20239258 C-215.48494939 333.54986017 -219.11524371 329.89136365 -222.74609375 326.23339844 C-225.41197597 323.54934844 -228.0809181 320.86836759 -230.75 318.1875 C-231.55856445 317.37063721 -232.36712891 316.55377441 -233.20019531 315.7121582 C-236.70852705 312.18886167 -240.2302165 308.74371292 -244 305.5 C-248.64899098 301.49977238 -252.937395 297.16936549 -257.25 292.8125 C-258.10754883 291.95116455 -258.96509766 291.0898291 -259.84863281 290.20239258 C-263.48494939 286.54986017 -267.11524371 282.89136365 -270.74609375 279.23339844 C-273.41197597 276.54934844 -276.0809181 273.86836759 -278.75 271.1875 C-279.55856445 270.37063721 -280.36712891 269.55377441 -281.20019531 268.7121582 C-285.39197344 264.50250004 -289.66526424 260.47794724 -294.16870117 256.60421753 C-296.90672656 254.20570766 -299.47205273 251.65291236 -302.03125 249.06640625 C-302.5526355 248.5436058 -303.074021 248.02080536 -303.61120605 247.48216248 C-305.24321078 245.84465002 -306.87166574 244.20366151 -308.5 242.5625 C-309.61955632 241.4379167 -310.73934629 240.31356595 -311.859375 239.18945312 C-314.57561534 236.46230656 -317.28868292 233.73204093 -320 231 C-316.63696841 229.87898947 -314.08432281 229.86165454 -310.53860474 229.84368896 C-309.55008981 229.83689082 -309.55008981 229.83689082 -308.54160488 229.82995534 C-306.32867701 229.81623962 -304.11579293 229.80988007 -301.90283203 229.80371094 C-300.31758993 229.79584855 -298.73234924 229.78769842 -297.14710999 229.77928162 C-282.6547707 229.71011654 -268.16193444 229.71587442 -253.66948128 229.73908615 C-242.96513722 229.7552582 -232.26209685 229.7360016 -221.55793679 229.67015433 C-214.02292418 229.62693948 -206.48858584 229.62595214 -198.95351112 229.65532327 C-194.45824597 229.67162803 -189.96480486 229.66946177 -185.46973038 229.62120819 C-181.23171936 229.57649001 -176.99691411 229.5844917 -172.758955 229.63112068 C-171.21311452 229.6392382 -169.66703779 229.62899148 -168.12148857 229.59790611 C-158.49136457 229.41744708 -152.35148356 231.08896357 -145.35271466 237.71658015 C-144.38932204 238.66675992 -143.43121137 239.62232801 -142.47873569 240.58345079 C-140.00862825 242.94968079 -137.29518957 244.94576638 -134.5625 247 C-133.96107178 247.45971191 -133.35964355 247.91942383 -132.73999023 248.39306641 C-132.26762939 248.75062012 -131.79526855 249.10817383 -131.30859375 249.4765625 C-122.28886956 256.33572942 -113.44833547 263.42895751 -104.6081543 270.5168457 C-98.68287624 275.26366628 -92.71511613 279.95508962 -86.73828125 284.63671875 C-84.97984878 286.01580399 -83.22393021 287.39802851 -81.46875 288.78125 C-80.87715088 289.24716553 -80.28555176 289.71308105 -79.67602539 290.19311523 C-78.0637259 291.46307561 -76.4517702 292.73347242 -74.83984375 294.00390625 C-69.24967243 298.36571846 -63.6201133 302.67683592 -58 307 C-57.67 281.92 -57.34 256.84 -57 231 C-34.5 230.8125 -34.5 230.8125 -27.44335938 230.79223633 C-25.57679451 230.76576752 -23.7102541 230.73748527 -21.84375 230.70703125 C-20.41530762 230.71301331 -20.41530762 230.71301331 -18.95800781 230.71911621 C-12.58354993 230.58452597 -7.7449698 229.46295636 -3 225 C1.12214995 219.94538393 1.57163593 216.38628859 1.48774719 210.14315796 C1.49187046 209.26288992 1.49599372 208.38262187 1.50024194 207.47567904 C1.50915736 204.53213275 1.4895267 201.58948058 1.4699707 198.64599609 C1.47047957 196.53340039 1.47273574 194.42080449 1.47660828 192.30821228 C1.48202825 186.57488375 1.46261465 180.84187827 1.43850732 175.10860777 C1.41721926 169.11136595 1.41780644 163.11412541 1.41581726 157.11685181 C1.40936946 147.04757117 1.38812012 136.978412 1.35668945 126.90917969 C1.31637846 113.97784835 1.29899879 101.04659613 1.28938007 88.11520958 C1.28108273 77.00419474 1.26384526 65.89319672 1.24434257 54.78219652 C1.23827459 51.20701573 1.23313328 47.6318343 1.2279911 44.05665207 C1.21921427 38.44407379 1.20491171 32.83153474 1.1862812 27.21898079 C1.18015479 25.15658689 1.17570682 23.09418724 1.17303848 21.03178596 C1.16906168 18.22211146 1.15894806 15.41252583 1.14717102 12.60287476 C1.14744756 11.37166006 1.14744756 11.37166006 1.14772969 10.11557233 C1.12677138 6.5744703 0.95157493 3.40752688 0 0 Z " fill="#00A384" transform="translate(420,133)"/>
<path d="M0 0 C5.74175182 4.69779694 9.16787654 10.27835095 10.0390625 17.71875 C10.42506882 24.95128942 8.94346469 30.32269895 4.75 36.25 C0.04992201 41.3670204 -4.45514838 44.86008693 -11.51953125 45.5859375 C-20.01710175 45.67962626 -25.85635395 45.35014338 -32.1796875 39.44921875 C-38.30836294 32.9009452 -40.80951616 26.88096891 -40.5390625 17.89453125 C-40.12048531 14.06511565 -39.11063839 11.63901993 -37.25 8.25 C-36.734375 7.239375 -36.21875 6.22875 -35.6875 5.1875 C-25.97993742 -6.51135747 -12.64076798 -6.80656737 0 0 Z " fill="#020202" transform="translate(271.25,223.75)"/>
<path d="M0 0 C5.97781545 3.15031987 9.69316803 8.11471205 13 13.875 C15.15612647 21.23119619 14.79052334 27.53081745 11.3203125 34.3984375 C7.60965974 40.59822379 3.23813657 45.58119845 -3.9375 47.5 C-10.90254315 48.28926307 -18.02846421 48.6396344 -24.1953125 44.89453125 C-29.66932182 40.51286908 -34.00878708 35.30722209 -35.9375 28.5 C-36.76580579 21.0141864 -36.48423261 14.68675639 -31.9375 8.5 C-23.65863363 -1.44265792 -12.46422681 -4.81864439 0 0 Z " fill="#020202" transform="translate(348.9375,221.5)"/>
<path d="M0 0 C6.45936201 3.7690187 12.20437617 10.00820937 14.48828125 17.16015625 C15.60870689 25.49848182 14.41408478 32.28777012 9.48828125 39.16015625 C4.51920152 44.65981534 -0.13332058 47.58229659 -7.58984375 48.56640625 C-15.77260757 48.80826134 -21.21505169 47.52314031 -27.51171875 42.16015625 C-32.98073516 36.53195849 -35.41257142 30.69096333 -35.94921875 22.84765625 C-35.75981475 16.30764767 -32.94963409 10.82416858 -28.57421875 6.04296875 C-20.67119956 -1.17152983 -10.359622 -3.46394826 0 0 Z " fill="#020202" transform="translate(184.51171875,220.83984375)"/>
</svg>
